<svg id="Layer_1" data-name="Layer 1" xmlns="http://www.w3.org/2000/svg" xmlns:xlink="http://www.w3.org/1999/xlink" viewBox="0 0 228.8 228.8"><defs><style>.cls-1,.cls-7{fill:none;}.cls-10,.cls-2,.cls-6{fill:#fff;}.cls-2,.cls-7{stroke:#000;}.cls-2,.cls-4,.cls-5,.cls-6,.cls-7{stroke-miterlimit:10;}.cls-3{fill:#fdd45b;}.cls-4{fill:#65d67d;}.cls-4,.cls-5,.cls-6{stroke:#1d1d1b;}.cls-5{fill:#fe5f43;}.cls-8{opacity:0.2;}.cls-9{clip-path:url(#clip-path);}</style><clipPath id="clip-path"><path class="cls-1" d="M96.15,111.88c10.56,0,15.18-3.15,17.06-17.27h2.31c1.89,14.06,6.5,17.27,17.06,17.27,11,0,15.94-3,16.08-21.75H80.13C80.13,108.88,85.1,111.88,96.15,111.88Z"/></clipPath></defs><title>l_high</title><path class="cls-2" d="M114.4.5A113.91,113.91,0,0,0,21.72,180.62L11.27,209.12l29.51-7.82A113.9,113.9,0,1,0,114.4.5Z"/><circle class="cls-3" cx="114.4" cy="115.4" r="78.14"/><path class="cls-4" d="M152.23,115.4c0,31.34-37.83,56.74-37.83,56.74s-37.83-25.4-37.83-56.74S114.4,58.66,114.4,58.66,152.23,84.06,152.23,115.4Z"/><path class="cls-5" d="M130.67,125.83H98.11a16.89,16.89,0,0,0,6.29,9.11h20A16.89,16.89,0,0,0,130.67,125.83Z"/><path class="cls-6" d="M97.49,121.32H131.3a17,17,0,0,1-.63,4.51H98.11A17,17,0,0,1,97.49,121.32Z"/><path class="cls-6" d="M104.41,134.94h20a16.83,16.83,0,0,1-20,0Z"/><circle class="cls-7" cx="114.4" cy="115.4" r="78.14"/><path d="M96.15,111.88c10.56,0,15.18-3.15,17.06-17.27h2.31c1.89,14.06,6.5,17.27,17.06,17.27,11,0,15.94-3,16.08-21.75H80.13C80.13,108.88,85.1,111.88,96.15,111.88Z"/><g class="cls-8"><g class="cls-9"><rect class="cls-10" x="78.91" y="41.34" width="9.22" height="93.43" transform="translate(86.72 -33.26) rotate(45)"/><rect class="cls-10" x="98.09" y="49.31" width="9.22" height="93.43" transform="translate(97.98 -44.49) rotate(45)"/><rect class="cls-10" x="117.27" y="57.28" width="9.22" height="93.43" transform="translate(109.24 -55.72) rotate(45)"/></g></g></svg>