<svg id="Layer_1" data-name="Layer 1" xmlns="http://www.w3.org/2000/svg" viewBox="0 0 228.8 228.8"><defs><style>.cls-1{fill:#fff;}.cls-1,.cls-5{stroke:#000;}.cls-1,.cls-3,.cls-5{stroke-miterlimit:10;}.cls-2{fill:#024ead;}.cls-3{fill:#65d67d;}.cls-3,.cls-4{stroke:#1d1d1b;}.cls-4,.cls-5{fill:none;}.cls-4{stroke-linecap:round;stroke-linejoin:round;}.cls-6{fill:#fdd45b;}</style></defs><title>l_low</title><path class="cls-1" d="M114.4.5A113.91,113.91,0,0,0,21.72,180.62L11.27,209.12l29.51-7.82A113.9,113.9,0,1,0,114.4.5Z"/><circle class="cls-2" cx="114.4" cy="114.4" r="78.14"/><path class="cls-3" d="M152.23,114.4c0,31.34-37.83,56.74-37.83,56.74s-37.83-25.4-37.83-56.74S114.4,57.66,114.4,57.66,152.23,83.06,152.23,114.4Z"/><path class="cls-4" d="M112,99.42a12.64,12.64,0,1,1-25.28,0"/><path class="cls-4" d="M143.17,99.42a12.64,12.64,0,1,1-25.28,0"/><circle class="cls-5" cx="114.4" cy="114.4" r="78.14"/><path class="cls-4" d="M105.32,127.32a20.37,20.37,0,0,0,20.37,0"/><path class="cls-6" d="M134.13,81.39h7.6v2.56h-11.2V82L138,70.13h-7.41V67.55h11v1.88Z"/><path class="cls-6" d="M152.51,73.26h9.31v3.13H148.1V74l9.11-14.56h-9.08V56.29h13.47V58.6Z"/><path class="cls-6" d="M172.51,63.25h12.78v4.3H166.45V64.29l12.5-20H166.49V40H185l0,3.16Z"/></svg>