<svg id="Layer_1" data-name="Layer 1" xmlns="http://www.w3.org/2000/svg" viewBox="0 0 875.59 170.55"><defs><style>.cls-1{fill:#65d67d;}.cls-1,.cls-4,.cls-5{stroke:#1d1d1b;}.cls-1,.cls-4,.cls-5,.cls-6{stroke-miterlimit:10;}.cls-2,.cls-5{fill:#fff;}.cls-3{fill:#2bc2fd;}.cls-4{fill:#fe5f43;}.cls-6{fill:none;stroke:#000;}</style></defs><title>mascot_msg</title><path d="M176.35,42.64a11.35,11.35,0,0,1-.93,3.33,8.58,8.58,0,0,1-1.82,2.6,7.94,7.94,0,0,1-2.66,1.69,9.3,9.3,0,0,1-3.42.6,8.91,8.91,0,0,1-2.94-.46,8.06,8.06,0,0,1-2.35-1.27,8.42,8.42,0,0,1-1.78-1.9,11.57,11.57,0,0,1-1.24-2.39,14.36,14.36,0,0,1-.74-2.71,18.35,18.35,0,0,1-.26-2.87V35.62a18.36,18.36,0,0,1,.26-2.87,14.38,14.38,0,0,1,.74-2.71,11.79,11.79,0,0,1,1.24-2.4,8.32,8.32,0,0,1,1.78-1.91,8.12,8.12,0,0,1,2.34-1.27,8.89,8.89,0,0,1,2.95-.46,9.61,9.61,0,0,1,3.5.6,7.71,7.71,0,0,1,2.66,1.71A8.43,8.43,0,0,1,175.46,29a11.9,11.9,0,0,1,.89,3.41H173a9.78,9.78,0,0,0-.56-2.21,6.09,6.09,0,0,0-1.06-1.8,4.69,4.69,0,0,0-1.63-1.21,5.43,5.43,0,0,0-2.27-.44,5.31,5.31,0,0,0-2.09.39,4.83,4.83,0,0,0-1.56,1.05,6,6,0,0,0-1.1,1.54,10.13,10.13,0,0,0-.71,1.87,13.34,13.34,0,0,0-.39,2,17.77,17.77,0,0,0-.12,2v3.68a17.77,17.77,0,0,0,.12,2,13.59,13.59,0,0,0,.39,2,10.41,10.41,0,0,0,.7,1.88,5.85,5.85,0,0,0,1.1,1.55,4.86,4.86,0,0,0,1.56,1.06,5.3,5.3,0,0,0,2.1.39,5.71,5.71,0,0,0,2.27-.41,4.54,4.54,0,0,0,1.63-1.16,5.76,5.76,0,0,0,1.06-1.76,9.62,9.62,0,0,0,.56-2.2Z"/><path d="M182,31.07h9.93V47.63h6.34v2.88H182V47.63h6.61V34H182Zm6.18-5.1a2,2,0,0,1,.49-1.39,2.26,2.26,0,0,1,3,0,2,2,0,0,1,.5,1.39,1.9,1.9,0,0,1-.5,1.35,2.34,2.34,0,0,1-3,0A1.92,1.92,0,0,1,188.19,26Z"/><path d="M216.34,50.51a3.64,3.64,0,0,1-.31-.94,10.38,10.38,0,0,1-.17-1.18,9.3,9.3,0,0,1-1.12,1,8,8,0,0,1-1.37.79,8.42,8.42,0,0,1-1.59.54,7.86,7.86,0,0,1-1.8.2,8.22,8.22,0,0,1-2.79-.45,6.52,6.52,0,0,1-2.12-1.21,5.27,5.27,0,0,1-1.35-1.81,5.44,5.44,0,0,1-.48-2.27,5.9,5.9,0,0,1,.64-2.8,5.54,5.54,0,0,1,1.81-2,8.43,8.43,0,0,1,2.81-1.19,15.73,15.73,0,0,1,3.67-.4h3.63V37.2a3.73,3.73,0,0,0-.32-1.58,3.36,3.36,0,0,0-.92-1.19,4.2,4.2,0,0,0-1.45-.76,6.34,6.34,0,0,0-1.91-.27,5.76,5.76,0,0,0-1.77.25,4.34,4.34,0,0,0-1.32.66,3,3,0,0,0-.83,1,2.51,2.51,0,0,0-.3,1.18h-3.34a4.66,4.66,0,0,1,.55-2.08,5.88,5.88,0,0,1,1.53-1.84,8,8,0,0,1,2.43-1.32,9.76,9.76,0,0,1,3.24-.5,11.17,11.17,0,0,1,3.07.4,7,7,0,0,1,2.45,1.22,5.78,5.78,0,0,1,1.63,2,6.46,6.46,0,0,1,.59,2.86v9a12.64,12.64,0,0,0,.18,2.06,9.13,9.13,0,0,0,.5,1.9v.29ZM210.47,48a6.32,6.32,0,0,0,1.81-.25,6.7,6.7,0,0,0,1.54-.66,5.59,5.59,0,0,0,1.19-.94,4.61,4.61,0,0,0,.79-1.1V41.08h-3.09a9.74,9.74,0,0,0-4.53.86,2.87,2.87,0,0,0-1.62,2.71,3.56,3.56,0,0,0,.24,1.33,2.78,2.78,0,0,0,.73,1.05,3.43,3.43,0,0,0,1.22.69A5.27,5.27,0,0,0,210.47,48Z"/><path d="M224.71,40.61a12.11,12.11,0,0,1,.61-3.91,9.36,9.36,0,0,1,1.75-3.13,8.14,8.14,0,0,1,2.77-2.09,8.6,8.6,0,0,1,3.68-.76,8.71,8.71,0,0,1,3.71.76A8.13,8.13,0,0,1,240,33.57a9.38,9.38,0,0,1,1.75,3.13,12.13,12.13,0,0,1,.61,3.91V41a12,12,0,0,1-.61,3.9A9.37,9.37,0,0,1,240,48a8.06,8.06,0,0,1-2.78,2.08,8.69,8.69,0,0,1-3.68.75,8.79,8.79,0,0,1-3.71-.75A8,8,0,0,1,227.07,48a9.35,9.35,0,0,1-1.75-3.13,12,12,0,0,1-.61-3.9ZM228,41a10.76,10.76,0,0,0,.34,2.74,7.08,7.08,0,0,0,1,2.29,5.1,5.1,0,0,0,1.73,1.56,4.94,4.94,0,0,0,2.43.57,4.86,4.86,0,0,0,2.4-.57A5.12,5.12,0,0,0,237.69,46a7.1,7.1,0,0,0,1-2.29,10.79,10.79,0,0,0,.34-2.74v-.4a10.44,10.44,0,0,0-.35-2.72,7.25,7.25,0,0,0-1-2.29A5.23,5.23,0,0,0,235.95,34a4.82,4.82,0,0,0-2.42-.58,4.77,4.77,0,0,0-2.41.58,5.25,5.25,0,0,0-1.72,1.57,7.09,7.09,0,0,0-1,2.29,10.69,10.69,0,0,0-.34,2.72Z"/><path d="M253.32,48.77a2.08,2.08,0,0,1,.51-1.44,2,2,0,0,1,1.54-.58,2,2,0,0,1,1.55.58,2,2,0,0,1,.53,1.44,1.93,1.93,0,0,1-.53,1.38,2,2,0,0,1-1.55.56,2,2,0,0,1-1.54-.56A2,2,0,0,1,253.32,48.77ZM257,42h-3.34V24.35H257Z"/><path d="M305.56,43.9a3.59,3.59,0,0,0-.55-2,4.89,4.89,0,0,0-1.41-1.39,9.18,9.18,0,0,0-1.9-.94q-1-.38-2-.68a29.57,29.57,0,0,1-2.81-1.08,12.22,12.22,0,0,1-2.6-1.54,7.77,7.77,0,0,1-1.92-2.16,5.62,5.62,0,0,1-.75-2.94,6.06,6.06,0,0,1,.75-3,7.24,7.24,0,0,1,1.95-2.25,8.76,8.76,0,0,1,2.73-1.39,10.26,10.26,0,0,1,3.07-.48,9.67,9.67,0,0,1,3.29.57,9.07,9.07,0,0,1,2.8,1.59,7.76,7.76,0,0,1,2,2.48,7.43,7.43,0,0,1,.77,3.25h-3.41a7.27,7.27,0,0,0-.56-2.06,5.1,5.1,0,0,0-1.1-1.59,4.81,4.81,0,0,0-1.63-1,5.8,5.8,0,0,0-2.13-.37,6.49,6.49,0,0,0-1.86.27,5,5,0,0,0-1.62.81,4,4,0,0,0-1.13,1.33,3.84,3.84,0,0,0-.42,1.83,3.3,3.3,0,0,0,.57,1.91,5,5,0,0,0,1.41,1.32,9.49,9.49,0,0,0,1.85.9q1,.36,1.88.63t2,.69a16.35,16.35,0,0,1,1.9.89,12.14,12.14,0,0,1,1.71,1.13A7.6,7.6,0,0,1,307.77,40,6.32,6.32,0,0,1,309,43.86a5.88,5.88,0,0,1-.78,3.07,7,7,0,0,1-2,2.18,9.13,9.13,0,0,1-2.8,1.31,11.47,11.47,0,0,1-3.13.44,11,11,0,0,1-3.41-.54,9.77,9.77,0,0,1-3-1.55,8.11,8.11,0,0,1-2.15-2.48,7.08,7.08,0,0,1-.88-3.33h3.4a6.32,6.32,0,0,0,.66,2.16,5.28,5.28,0,0,0,1.29,1.6,5.42,5.42,0,0,0,1.82,1,7.32,7.32,0,0,0,2.25.33,7.63,7.63,0,0,0,1.91-.24,5.15,5.15,0,0,0,1.68-.75,4.14,4.14,0,0,0,1.2-1.29A3.56,3.56,0,0,0,305.56,43.9Z"/><path d="M322.54,50.87a9.86,9.86,0,0,1-3.76-.7,8.52,8.52,0,0,1-2.94-2,9,9,0,0,1-1.9-3,10.11,10.11,0,0,1-.68-3.75v-.75a11.11,11.11,0,0,1,.75-4.21,9.67,9.67,0,0,1,2-3.14,8.75,8.75,0,0,1,2.84-2,8.18,8.18,0,0,1,3.26-.68,8.68,8.68,0,0,1,3.67.73,7.22,7.22,0,0,1,2.61,2,8.59,8.59,0,0,1,1.55,3,13.33,13.33,0,0,1,.51,3.77v1.49H316.57a7.63,7.63,0,0,0,.51,2.5,6.47,6.47,0,0,0,1.26,2,5.81,5.81,0,0,0,1.91,1.37,5.91,5.91,0,0,0,2.46.5,6.76,6.76,0,0,0,3.16-.72,6.85,6.85,0,0,0,2.3-1.9l2,1.58A7.71,7.71,0,0,1,329,48.52a8.37,8.37,0,0,1-1.68,1.19,9.46,9.46,0,0,1-2.16.84A10.39,10.39,0,0,1,322.54,50.87Zm-.43-17.42a4.91,4.91,0,0,0-3.52,1.45,6.14,6.14,0,0,0-1.21,1.74,8.27,8.27,0,0,0-.69,2.38h10.45v-.25a7.41,7.41,0,0,0-.37-1.92,5.37,5.37,0,0,0-.92-1.71,4.63,4.63,0,0,0-1.54-1.22A4.83,4.83,0,0,0,322.1,33.44Z"/><path d="M336.55,22.92h9.93V47.63h6.34v2.88H336.55V47.63h6.61V25.81h-6.61Z"/><path d="M366.69,50.87a9.86,9.86,0,0,1-3.76-.7,8.52,8.52,0,0,1-2.94-2,9,9,0,0,1-1.9-3,10.11,10.11,0,0,1-.68-3.75v-.75a11.11,11.11,0,0,1,.75-4.21,9.67,9.67,0,0,1,2-3.14,8.75,8.75,0,0,1,2.84-2,8.18,8.18,0,0,1,3.26-.68,8.68,8.68,0,0,1,3.67.73,7.22,7.22,0,0,1,2.61,2,8.59,8.59,0,0,1,1.55,3,13.33,13.33,0,0,1,.51,3.77v1.49H360.72a7.63,7.63,0,0,0,.51,2.5,6.47,6.47,0,0,0,1.26,2,5.81,5.81,0,0,0,1.91,1.37,5.91,5.91,0,0,0,2.46.5,6.76,6.76,0,0,0,3.16-.72,6.85,6.85,0,0,0,2.3-1.9l2,1.58a7.71,7.71,0,0,1-1.21,1.41,8.37,8.37,0,0,1-1.68,1.19,9.46,9.46,0,0,1-2.16.84A10.39,10.39,0,0,1,366.69,50.87Zm-.43-17.42a4.91,4.91,0,0,0-3.52,1.45,6.14,6.14,0,0,0-1.21,1.74,8.27,8.27,0,0,0-.69,2.38h10.45v-.25a7.41,7.41,0,0,0-.37-1.92,5.37,5.37,0,0,0-.92-1.71,4.63,4.63,0,0,0-1.54-1.22A4.83,4.83,0,0,0,366.26,33.44Z"/><path d="M384.17,47.79h12.38v2.71H379.93V48.06l11.6-14.24H380.09V31.07h15.81v2.35Z"/><path d="M402.77,31.07h9.93V47.63H419v2.88H402.77V47.63h6.61V34h-6.61ZM409,26a2,2,0,0,1,.49-1.39,2.26,2.26,0,0,1,3,0,2,2,0,0,1,.5,1.39,1.9,1.9,0,0,1-.5,1.35,2.34,2.34,0,0,1-3,0A1.92,1.92,0,0,1,409,26Z"/><path d="M423.4,40.61A12.11,12.11,0,0,1,424,36.7a9.36,9.36,0,0,1,1.75-3.13,8.14,8.14,0,0,1,2.77-2.09,8.6,8.6,0,0,1,3.68-.76,8.71,8.71,0,0,1,3.71.76,8.13,8.13,0,0,1,2.78,2.09,9.38,9.38,0,0,1,1.75,3.13,12.13,12.13,0,0,1,.61,3.91V41a12,12,0,0,1-.61,3.9A9.37,9.37,0,0,1,438.71,48a8.06,8.06,0,0,1-2.78,2.08,8.69,8.69,0,0,1-3.68.75,8.79,8.79,0,0,1-3.71-.75A8,8,0,0,1,425.76,48,9.35,9.35,0,0,1,424,44.9a12,12,0,0,1-.61-3.9Zm3.32.4a10.76,10.76,0,0,0,.34,2.74,7.08,7.08,0,0,0,1,2.29,5.1,5.1,0,0,0,1.73,1.56,4.94,4.94,0,0,0,2.43.57,4.86,4.86,0,0,0,2.4-.57A5.12,5.12,0,0,0,436.37,46a7.1,7.1,0,0,0,1-2.29,10.79,10.79,0,0,0,.34-2.74v-.4a10.44,10.44,0,0,0-.35-2.72,7.25,7.25,0,0,0-1-2.29A5.23,5.23,0,0,0,434.63,34a4.82,4.82,0,0,0-2.42-.58,4.77,4.77,0,0,0-2.41.58,5.25,5.25,0,0,0-1.72,1.57,7.09,7.09,0,0,0-1,2.29,10.69,10.69,0,0,0-.34,2.72Z"/><path d="M449.39,31.07l.23,2.87a7.71,7.71,0,0,1,2.6-2.36,7.15,7.15,0,0,1,3.45-.87,8.44,8.44,0,0,1,2.77.43,5.3,5.3,0,0,1,2.13,1.35,6.14,6.14,0,0,1,1.36,2.33,10.51,10.51,0,0,1,.48,3.35V50.51h-3.32V38.24A7.27,7.27,0,0,0,458.8,36a3.5,3.5,0,0,0-.85-1.46,3.33,3.33,0,0,0-1.38-.81,6.38,6.38,0,0,0-1.88-.25,5.21,5.21,0,0,0-2.94.83,6.17,6.17,0,0,0-2,2.2V50.51h-3.32V31.07Z"/><path d="M481.25,50.51a3.64,3.64,0,0,1-.31-.94,10.38,10.38,0,0,1-.17-1.18,9.3,9.3,0,0,1-1.12,1,8,8,0,0,1-1.37.79,8.42,8.42,0,0,1-1.59.54,7.86,7.86,0,0,1-1.8.2,8.22,8.22,0,0,1-2.79-.45A6.52,6.52,0,0,1,470,49.21a5.27,5.27,0,0,1-1.35-1.81,5.44,5.44,0,0,1-.48-2.27,5.9,5.9,0,0,1,.64-2.8,5.54,5.54,0,0,1,1.81-2,8.43,8.43,0,0,1,2.81-1.19,15.73,15.73,0,0,1,3.67-.4h3.63V37.2a3.73,3.73,0,0,0-.32-1.58,3.36,3.36,0,0,0-.92-1.19,4.2,4.2,0,0,0-1.45-.76,6.34,6.34,0,0,0-1.91-.27,5.76,5.76,0,0,0-1.77.25,4.34,4.34,0,0,0-1.32.66,3,3,0,0,0-.83,1,2.51,2.51,0,0,0-.3,1.18h-3.34a4.66,4.66,0,0,1,.55-2.08,5.88,5.88,0,0,1,1.53-1.84,8,8,0,0,1,2.43-1.32,9.76,9.76,0,0,1,3.24-.5,11.17,11.17,0,0,1,3.07.4,7,7,0,0,1,2.45,1.22,5.78,5.78,0,0,1,1.63,2,6.46,6.46,0,0,1,.59,2.86v9a12.64,12.64,0,0,0,.18,2.06,9.13,9.13,0,0,0,.5,1.9v.29ZM475.38,48a6.32,6.32,0,0,0,1.81-.25,6.7,6.7,0,0,0,1.54-.66,5.59,5.59,0,0,0,1.19-.94,4.61,4.61,0,0,0,.79-1.1V41.08h-3.09a9.74,9.74,0,0,0-4.53.86,2.87,2.87,0,0,0-1.62,2.71,3.56,3.56,0,0,0,.24,1.33,2.78,2.78,0,0,0,.73,1.05,3.43,3.43,0,0,0,1.22.69A5.27,5.27,0,0,0,475.38,48Z"/><path d="M513.16,22.92h9.93V47.63h6.34v2.88H513.16V47.63h6.61V25.81h-6.61Z"/><path d="M547.48,50.51a3.64,3.64,0,0,1-.31-.94,10.38,10.38,0,0,1-.17-1.18,9.3,9.3,0,0,1-1.12,1,8,8,0,0,1-1.37.79,8.42,8.42,0,0,1-1.59.54,7.86,7.86,0,0,1-1.8.2,8.22,8.22,0,0,1-2.79-.45,6.52,6.52,0,0,1-2.12-1.21,5.27,5.27,0,0,1-1.35-1.81,5.44,5.44,0,0,1-.48-2.27,5.9,5.9,0,0,1,.64-2.8,5.54,5.54,0,0,1,1.81-2,8.43,8.43,0,0,1,2.81-1.19,15.73,15.73,0,0,1,3.67-.4h3.63V37.2a3.73,3.73,0,0,0-.32-1.58,3.36,3.36,0,0,0-.92-1.19,4.2,4.2,0,0,0-1.45-.76,6.34,6.34,0,0,0-1.91-.27,5.76,5.76,0,0,0-1.77.25,4.34,4.34,0,0,0-1.32.66,3,3,0,0,0-.83,1,2.51,2.51,0,0,0-.3,1.18h-3.34a4.66,4.66,0,0,1,.55-2.08,5.88,5.88,0,0,1,1.53-1.84,8,8,0,0,1,2.43-1.32,9.76,9.76,0,0,1,3.24-.5,11.17,11.17,0,0,1,3.07.4A7,7,0,0,1,548,32.34a5.78,5.78,0,0,1,1.63,2,6.46,6.46,0,0,1,.59,2.86v9a12.64,12.64,0,0,0,.18,2.06,9.13,9.13,0,0,0,.5,1.9v.29ZM541.61,48a6.32,6.32,0,0,0,1.81-.25,6.7,6.7,0,0,0,1.54-.66,5.59,5.59,0,0,0,1.19-.94,4.61,4.61,0,0,0,.79-1.1V41.08h-3.09a9.74,9.74,0,0,0-4.53.86,2.87,2.87,0,0,0-1.62,2.71A3.56,3.56,0,0,0,538,46a2.78,2.78,0,0,0,.73,1.05,3.43,3.43,0,0,0,1.22.69A5.27,5.27,0,0,0,541.61,48Z"/><path d="M586.73,26.37v4.71h7.4v2.57h-7.4V44.2a5.18,5.18,0,0,0,.29,1.87,3,3,0,0,0,.79,1.18,2.9,2.9,0,0,0,1.16.62,5.27,5.27,0,0,0,1.39.18,10.23,10.23,0,0,0,1.11-.06q.57-.06,1.12-.15l1-.19.78-.17.47,2.35a4.65,4.65,0,0,1-1,.44,11.27,11.27,0,0,1-1.29.32q-.7.13-1.48.21c-.52,0-1,.07-1.55.07a7.69,7.69,0,0,1-2.42-.37,5,5,0,0,1-1.95-1.17,5.51,5.51,0,0,1-1.3-2.06,8.73,8.73,0,0,1-.48-3.06V33.64h-5.1V31.07h5.1V26.37Z"/><path d="M613.55,47.83a6.68,6.68,0,0,1-5.78,3,7.68,7.68,0,0,1-2.77-.48,5.3,5.3,0,0,1-2.12-1.48,6.88,6.88,0,0,1-1.36-2.56,12.83,12.83,0,0,1-.48-3.73V31.07h3.32V42.66a11.41,11.41,0,0,0,.25,2.62,4.15,4.15,0,0,0,.75,1.66,2.68,2.68,0,0,0,1.23.87,5.12,5.12,0,0,0,1.68.25,5.85,5.85,0,0,0,3.28-.83A5,5,0,0,0,613.42,45V31.07h3.34V50.51h-3Z"/><path d="M635.79,50.51a3.6,3.6,0,0,1-.31-.94,10.27,10.27,0,0,1-.17-1.18,9.33,9.33,0,0,1-1.12,1,8.09,8.09,0,0,1-1.37.79,8.46,8.46,0,0,1-1.59.54,7.87,7.87,0,0,1-1.8.2,8.22,8.22,0,0,1-2.79-.45,6.52,6.52,0,0,1-2.12-1.21,5.25,5.25,0,0,1-1.35-1.81,5.44,5.44,0,0,1-.48-2.27,5.89,5.89,0,0,1,.64-2.8,5.53,5.53,0,0,1,1.8-2,8.42,8.42,0,0,1,2.81-1.19,15.73,15.73,0,0,1,3.67-.4h3.63V37.2a3.71,3.71,0,0,0-.32-1.58,3.35,3.35,0,0,0-.92-1.19,4.19,4.19,0,0,0-1.45-.76,6.34,6.34,0,0,0-1.91-.27,5.75,5.75,0,0,0-1.77.25,4.35,4.35,0,0,0-1.32.66,3,3,0,0,0-.83,1,2.51,2.51,0,0,0-.3,1.18h-3.34a4.65,4.65,0,0,1,.55-2.08,5.88,5.88,0,0,1,1.53-1.84,8,8,0,0,1,2.42-1.32,9.76,9.76,0,0,1,3.24-.5,11.17,11.17,0,0,1,3.07.4,7,7,0,0,1,2.45,1.22,5.78,5.78,0,0,1,1.63,2,6.48,6.48,0,0,1,.59,2.86v9a12.7,12.7,0,0,0,.18,2.06,9.13,9.13,0,0,0,.5,1.9v.29ZM629.91,48a6.31,6.31,0,0,0,1.81-.25,6.71,6.71,0,0,0,1.54-.66,5.58,5.58,0,0,0,1.19-.94,4.57,4.57,0,0,0,.79-1.1V41.08h-3.09a9.74,9.74,0,0,0-4.53.86A2.87,2.87,0,0,0,626,44.65a3.55,3.55,0,0,0,.24,1.33A2.78,2.78,0,0,0,627,47a3.43,3.43,0,0,0,1.22.69A5.26,5.26,0,0,0,629.91,48Z"/><path d="M680.08,45.35a2.2,2.2,0,0,0-1-1.94,6.22,6.22,0,0,0-1.47-.73,15.66,15.66,0,0,0-2.28-.6,22.88,22.88,0,0,1-3-.83,10,10,0,0,1-2.35-1.16,5.07,5.07,0,0,1-1.52-1.58,4.06,4.06,0,0,1-.54-2.11,4.61,4.61,0,0,1,.56-2.22,5.66,5.66,0,0,1,1.56-1.8,7.86,7.86,0,0,1,2.4-1.22,9.92,9.92,0,0,1,3.06-.45,10.44,10.44,0,0,1,3.23.47,7.41,7.41,0,0,1,2.44,1.29,5.83,5.83,0,0,1,1.55,1.93,5.28,5.28,0,0,1,.55,2.38h-3.32a2.58,2.58,0,0,0-.32-1.23,3.56,3.56,0,0,0-.9-1.07,4.63,4.63,0,0,0-1.39-.75,5.53,5.53,0,0,0-1.84-.29,6.66,6.66,0,0,0-1.86.23,4.16,4.16,0,0,0-1.33.63,2.68,2.68,0,0,0-.8.92,2.41,2.41,0,0,0-.05,2.1,2.1,2.1,0,0,0,.75.81,5.61,5.61,0,0,0,1.42.65,20.44,20.44,0,0,0,2.25.56,26.6,26.6,0,0,1,3.22.87,9.49,9.49,0,0,1,2.39,1.19A5,5,0,0,1,682.9,43a4.28,4.28,0,0,1,.51,2.12,4.8,4.8,0,0,1-.58,2.35,5.51,5.51,0,0,1-1.63,1.81,7.86,7.86,0,0,1-2.5,1.17,11.61,11.61,0,0,1-3.18.41,10.84,10.84,0,0,1-3.52-.53,8.4,8.4,0,0,1-2.61-1.4,6,6,0,0,1-1.63-2,5.33,5.33,0,0,1-.57-2.39h3.32a3.44,3.44,0,0,0,.55,1.72,3.82,3.82,0,0,0,1.19,1.13,4.9,4.9,0,0,0,1.57.61,8.31,8.31,0,0,0,1.71.18,6.19,6.19,0,0,0,3.32-.77A2.38,2.38,0,0,0,680.08,45.35Z"/><path d="M697.53,48.17a5.46,5.46,0,0,0,1.75-.29,5.18,5.18,0,0,0,1.52-.8,4.17,4.17,0,0,0,1.07-1.2,3.06,3.06,0,0,0,.42-1.5h3.14a5.16,5.16,0,0,1-.67,2.47A7.09,7.09,0,0,1,703,48.92a8.92,8.92,0,0,1-2.52,1.42,8.41,8.41,0,0,1-3,.53,8.86,8.86,0,0,1-3.86-.79,8,8,0,0,1-2.76-2.13,9.15,9.15,0,0,1-1.66-3.09,12.11,12.11,0,0,1-.56-3.69v-.75a12.14,12.14,0,0,1,.56-3.68,9.15,9.15,0,0,1,1.66-3.1,8,8,0,0,1,2.76-2.13,9.67,9.67,0,0,1,7-.24,7.88,7.88,0,0,1,2.5,1.49A6.75,6.75,0,0,1,704.84,35a6.57,6.57,0,0,1,.59,2.77h-3.14a4,4,0,0,0-.39-1.66,4.52,4.52,0,0,0-1-1.37,4.62,4.62,0,0,0-1.5-.93,5.1,5.1,0,0,0-1.88-.34,4.81,4.81,0,0,0-4.29,2.24,6.79,6.79,0,0,0-.93,2.24,11.36,11.36,0,0,0-.28,2.5v.75a11.56,11.56,0,0,0,.28,2.52,6.92,6.92,0,0,0,.92,2.25,5,5,0,0,0,1.69,1.62A5.07,5.07,0,0,0,697.53,48.17Z"/><path d="M723.93,47.83a6.67,6.67,0,0,1-5.78,3,7.68,7.68,0,0,1-2.77-.48,5.3,5.3,0,0,1-2.12-1.48,6.89,6.89,0,0,1-1.36-2.56,12.83,12.83,0,0,1-.48-3.73V31.07h3.32V42.66a11.42,11.42,0,0,0,.25,2.62,4.13,4.13,0,0,0,.75,1.66,2.67,2.67,0,0,0,1.23.87,5.12,5.12,0,0,0,1.68.25,5.85,5.85,0,0,0,3.28-.83A5,5,0,0,0,723.81,45V31.07h3.34V50.51h-3Z"/><path d="M732.46,40.61a12.11,12.11,0,0,1,.61-3.91,9.38,9.38,0,0,1,1.75-3.13,8.15,8.15,0,0,1,2.78-2.09,8.6,8.6,0,0,1,3.68-.76,8.71,8.71,0,0,1,3.71.76,8.11,8.11,0,0,1,2.78,2.09,9.37,9.37,0,0,1,1.75,3.13,12.14,12.14,0,0,1,.61,3.91V41a12.06,12.06,0,0,1-.61,3.9A9.36,9.36,0,0,1,747.78,48,8,8,0,0,1,745,50.11a8.68,8.68,0,0,1-3.68.75,8.79,8.79,0,0,1-3.71-.75A8,8,0,0,1,734.83,48a9.38,9.38,0,0,1-1.75-3.13,12,12,0,0,1-.61-3.9Zm3.32.4a10.76,10.76,0,0,0,.34,2.74,7.07,7.07,0,0,0,1,2.29,5.1,5.1,0,0,0,1.73,1.56,5,5,0,0,0,2.43.57,4.86,4.86,0,0,0,2.4-.57A5.13,5.13,0,0,0,745.44,46a7.09,7.09,0,0,0,1-2.29,10.76,10.76,0,0,0,.34-2.74v-.4a10.48,10.48,0,0,0-.35-2.72,7.28,7.28,0,0,0-1-2.29A5.23,5.23,0,0,0,743.7,34a4.82,4.82,0,0,0-2.42-.58,4.77,4.77,0,0,0-2.41.58,5.25,5.25,0,0,0-1.71,1.57,7.08,7.08,0,0,0-1,2.29,10.69,10.69,0,0,0-.34,2.72Z"/><path d="M756,22.92h9.93V47.63h6.34v2.88H756V47.63h6.61V25.81H756Z"/><path d="M790.32,50.51a3.68,3.68,0,0,1-.31-.94,10.5,10.5,0,0,1-.17-1.18,9.27,9.27,0,0,1-1.12,1,8,8,0,0,1-1.37.79,8.39,8.39,0,0,1-1.59.54,7.85,7.85,0,0,1-1.8.2,8.22,8.22,0,0,1-2.79-.45,6.52,6.52,0,0,1-2.12-1.21,5.29,5.29,0,0,1-1.35-1.81,5.44,5.44,0,0,1-.48-2.27,5.9,5.9,0,0,1,.64-2.8,5.55,5.55,0,0,1,1.81-2,8.43,8.43,0,0,1,2.81-1.19,15.73,15.73,0,0,1,3.67-.4h3.63V37.2a3.74,3.74,0,0,0-.32-1.58,3.38,3.38,0,0,0-.92-1.19,4.21,4.21,0,0,0-1.45-.76,6.34,6.34,0,0,0-1.91-.27,5.76,5.76,0,0,0-1.77.25,4.33,4.33,0,0,0-1.32.66,3,3,0,0,0-.83,1,2.5,2.5,0,0,0-.3,1.18h-3.34a4.67,4.67,0,0,1,.55-2.08,5.88,5.88,0,0,1,1.53-1.84,8,8,0,0,1,2.43-1.32,9.75,9.75,0,0,1,3.24-.5,11.18,11.18,0,0,1,3.07.4,7,7,0,0,1,2.45,1.22,5.77,5.77,0,0,1,1.63,2,6.45,6.45,0,0,1,.59,2.86v9a12.59,12.59,0,0,0,.18,2.06,9.13,9.13,0,0,0,.5,1.9v.29ZM784.45,48a6.32,6.32,0,0,0,1.81-.25,6.69,6.69,0,0,0,1.54-.66,5.59,5.59,0,0,0,1.2-.94,4.65,4.65,0,0,0,.79-1.1V41.08h-3.09a9.74,9.74,0,0,0-4.53.86,2.87,2.87,0,0,0-1.62,2.71,3.57,3.57,0,0,0,.24,1.33,2.78,2.78,0,0,0,.73,1.05,3.42,3.42,0,0,0,1.22.69A5.27,5.27,0,0,0,784.45,48Z"/><path d="M168,95a9.85,9.85,0,0,1-3.76-.7,8.53,8.53,0,0,1-2.94-2,9,9,0,0,1-1.9-3,10.1,10.1,0,0,1-.68-3.75v-.75a11.13,11.13,0,0,1,.75-4.21,9.66,9.66,0,0,1,2-3.14,8.74,8.74,0,0,1,2.84-2,8.19,8.19,0,0,1,3.26-.68,8.65,8.65,0,0,1,3.67.73,7.2,7.2,0,0,1,2.61,2,8.58,8.58,0,0,1,1.55,3,13.33,13.33,0,0,1,.51,3.77v1.49H162a7.63,7.63,0,0,0,.51,2.5,6.47,6.47,0,0,0,1.26,2,5.8,5.8,0,0,0,1.91,1.38,5.9,5.9,0,0,0,2.46.5,6.75,6.75,0,0,0,3.16-.72,6.87,6.87,0,0,0,2.3-1.9l2,1.58a7.71,7.71,0,0,1-1.21,1.41,8.34,8.34,0,0,1-1.68,1.19,9.42,9.42,0,0,1-2.16.83A10.34,10.34,0,0,1,168,95Zm-.43-17.42A4.93,4.93,0,0,0,164,79a6.15,6.15,0,0,0-1.21,1.74,8.25,8.25,0,0,0-.69,2.38H172.6v-.25a7.42,7.42,0,0,0-.37-1.92,5.35,5.35,0,0,0-.92-1.71,4.64,4.64,0,0,0-1.54-1.22A4.84,4.84,0,0,0,167.57,77.59Z"/><path d="M211.85,92.32A5.43,5.43,0,0,0,213.6,92a5.16,5.16,0,0,0,1.52-.8,4.16,4.16,0,0,0,1.07-1.2,3.07,3.07,0,0,0,.42-1.5h3.14a5.16,5.16,0,0,1-.67,2.47,7.1,7.1,0,0,1-1.75,2.06,8.89,8.89,0,0,1-2.52,1.42,8.4,8.4,0,0,1-3,.53,8.87,8.87,0,0,1-3.86-.79,8,8,0,0,1-2.76-2.13A9.17,9.17,0,0,1,203.57,89a12.12,12.12,0,0,1-.56-3.69v-.75a12.14,12.14,0,0,1,.56-3.68,9.13,9.13,0,0,1,1.66-3.1A8,8,0,0,1,208,75.65a9.64,9.64,0,0,1,7-.24,7.87,7.87,0,0,1,2.5,1.49,6.76,6.76,0,0,1,1.64,2.24,6.57,6.57,0,0,1,.59,2.77h-3.14a4.05,4.05,0,0,0-.39-1.66,4.52,4.52,0,0,0-1-1.37,4.62,4.62,0,0,0-1.5-.93,5.1,5.1,0,0,0-1.88-.34,4.82,4.82,0,0,0-4.29,2.24,6.82,6.82,0,0,0-.93,2.24,11.37,11.37,0,0,0-.28,2.5v.75a11.56,11.56,0,0,0,.28,2.52,6.93,6.93,0,0,0,.92,2.25,5,5,0,0,0,1.69,1.62A5.06,5.06,0,0,0,211.85,92.32Z"/><path d="M226.16,67.06h9.93V91.78h6.34v2.87H226.16V91.78h6.61V70h-6.61Z"/><path d="M248.24,75.22h9.93V91.78h6.34v2.87H248.24V91.78h6.61V78.11h-6.61Zm6.18-5.1a2,2,0,0,1,.49-1.39,2.26,2.26,0,0,1,3,0,2,2,0,0,1,.5,1.39,1.9,1.9,0,0,1-.5,1.35,2.34,2.34,0,0,1-3,0A1.92,1.92,0,0,1,254.42,70.12Z"/><path d="M278.08,92.32a5.43,5.43,0,0,0,1.75-.29,5.16,5.16,0,0,0,1.52-.8,4.16,4.16,0,0,0,1.07-1.2,3.07,3.07,0,0,0,.42-1.5H286a5.16,5.16,0,0,1-.67,2.47,7.1,7.1,0,0,1-1.75,2.06A8.89,8.89,0,0,1,281,94.48a8.4,8.4,0,0,1-3,.53,8.87,8.87,0,0,1-3.86-.79,8,8,0,0,1-2.76-2.13A9.17,9.17,0,0,1,269.8,89a12.12,12.12,0,0,1-.56-3.69v-.75a12.14,12.14,0,0,1,.56-3.68,9.13,9.13,0,0,1,1.66-3.1,8,8,0,0,1,2.76-2.13,9.64,9.64,0,0,1,7-.24,7.87,7.87,0,0,1,2.5,1.49,6.76,6.76,0,0,1,1.64,2.24A6.57,6.57,0,0,1,286,81.9h-3.14a4.05,4.05,0,0,0-.39-1.66,4.52,4.52,0,0,0-1-1.37,4.62,4.62,0,0,0-1.5-.93,5.1,5.1,0,0,0-1.88-.34,4.82,4.82,0,0,0-4.29,2.24,6.82,6.82,0,0,0-.93,2.24,11.37,11.37,0,0,0-.28,2.5v.75a11.56,11.56,0,0,0,.28,2.52,6.93,6.93,0,0,0,.92,2.25,5,5,0,0,0,1.69,1.62A5.06,5.06,0,0,0,278.08,92.32Z"/><path d="M300.15,92.32A5.43,5.43,0,0,0,301.9,92a5.16,5.16,0,0,0,1.52-.8,4.16,4.16,0,0,0,1.07-1.2,3.07,3.07,0,0,0,.42-1.5h3.14a5.16,5.16,0,0,1-.67,2.47,7.1,7.1,0,0,1-1.75,2.06,8.89,8.89,0,0,1-2.52,1.42,8.4,8.4,0,0,1-3,.53,8.87,8.87,0,0,1-3.86-.79,8,8,0,0,1-2.76-2.13A9.17,9.17,0,0,1,291.87,89a12.12,12.12,0,0,1-.56-3.69v-.75a12.14,12.14,0,0,1,.56-3.68,9.13,9.13,0,0,1,1.66-3.1,8,8,0,0,1,2.76-2.13,9.64,9.64,0,0,1,7-.24,7.87,7.87,0,0,1,2.5,1.49,6.76,6.76,0,0,1,1.64,2.24,6.57,6.57,0,0,1,.59,2.77h-3.14a4.05,4.05,0,0,0-.39-1.66,4.52,4.52,0,0,0-1-1.37,4.62,4.62,0,0,0-1.5-.93,5.1,5.1,0,0,0-1.88-.34,4.82,4.82,0,0,0-4.29,2.24,6.82,6.82,0,0,0-.93,2.24,11.37,11.37,0,0,0-.28,2.5v.75a11.56,11.56,0,0,0,.28,2.52,6.93,6.93,0,0,0,.92,2.25,5,5,0,0,0,1.69,1.62A5.06,5.06,0,0,0,300.15,92.32Z"/><path d="M326.72,94.65a3.62,3.62,0,0,1-.31-.94,10.42,10.42,0,0,1-.17-1.18,9.3,9.3,0,0,1-1.12,1,7.9,7.9,0,0,1-1.37.79,8.35,8.35,0,0,1-1.59.54,7.86,7.86,0,0,1-1.8.2,8.2,8.2,0,0,1-2.79-.45,6.52,6.52,0,0,1-2.12-1.21,5.28,5.28,0,0,1-1.35-1.81,5.44,5.44,0,0,1-.48-2.27,5.89,5.89,0,0,1,.64-2.8,5.56,5.56,0,0,1,1.81-2,8.39,8.39,0,0,1,2.81-1.19,15.73,15.73,0,0,1,3.67-.4h3.63V81.34a3.72,3.72,0,0,0-.32-1.58,3.38,3.38,0,0,0-.92-1.2,4.23,4.23,0,0,0-1.45-.76,6.34,6.34,0,0,0-1.91-.27,5.79,5.79,0,0,0-1.77.25,4.34,4.34,0,0,0-1.32.67,3,3,0,0,0-.83,1,2.5,2.5,0,0,0-.3,1.18H314a4.66,4.66,0,0,1,.55-2.08,5.88,5.88,0,0,1,1.53-1.84,7.94,7.94,0,0,1,2.43-1.32,9.71,9.71,0,0,1,3.24-.5,11.17,11.17,0,0,1,3.07.4,7,7,0,0,1,2.45,1.22,5.78,5.78,0,0,1,1.63,2,6.47,6.47,0,0,1,.59,2.86v9a12.65,12.65,0,0,0,.18,2.06,9.14,9.14,0,0,0,.5,1.89v.29Zm-5.87-2.53a6.32,6.32,0,0,0,1.81-.25,6.75,6.75,0,0,0,1.54-.67,5.59,5.59,0,0,0,1.19-.94,4.61,4.61,0,0,0,.79-1.1V85.22h-3.09a9.76,9.76,0,0,0-4.53.86,2.87,2.87,0,0,0-1.62,2.71,3.57,3.57,0,0,0,.24,1.33,2.8,2.8,0,0,0,.73,1.05,3.46,3.46,0,0,0,1.22.69A5.27,5.27,0,0,0,320.85,92.12Z"/><path d="M371,89.5a2.2,2.2,0,0,0-1-1.94,6.28,6.28,0,0,0-1.47-.73,15.77,15.77,0,0,0-2.28-.6,23.18,23.18,0,0,1-3-.83,10.06,10.06,0,0,1-2.35-1.16,5,5,0,0,1-1.52-1.58,4,4,0,0,1-.54-2.11,4.6,4.6,0,0,1,.56-2.22,5.64,5.64,0,0,1,1.56-1.81,7.87,7.87,0,0,1,2.4-1.22,10,10,0,0,1,3.06-.45,10.46,10.46,0,0,1,3.23.47A7.43,7.43,0,0,1,372,76.62a5.85,5.85,0,0,1,1.55,1.93,5.29,5.29,0,0,1,.55,2.38h-3.32a2.57,2.57,0,0,0-.32-1.23,3.53,3.53,0,0,0-.9-1.07,4.63,4.63,0,0,0-1.39-.75,5.53,5.53,0,0,0-1.84-.29,6.63,6.63,0,0,0-1.86.23,4.16,4.16,0,0,0-1.33.63,2.68,2.68,0,0,0-.8.92,2.31,2.31,0,0,0-.27,1.08,2.34,2.34,0,0,0,.22,1,2.1,2.1,0,0,0,.75.81,5.64,5.64,0,0,0,1.42.65,20.37,20.37,0,0,0,2.25.56,26,26,0,0,1,3.22.87,9.46,9.46,0,0,1,2.39,1.19,4.94,4.94,0,0,1,1.48,1.61,4.27,4.27,0,0,1,.51,2.12,4.8,4.8,0,0,1-.58,2.35,5.53,5.53,0,0,1-1.63,1.81,7.91,7.91,0,0,1-2.5,1.17,11.61,11.61,0,0,1-3.18.41,10.82,10.82,0,0,1-3.52-.53,8.41,8.41,0,0,1-2.61-1.4,6,6,0,0,1-1.63-2,5.34,5.34,0,0,1-.57-2.39h3.32A3.43,3.43,0,0,0,362,90.4a3.8,3.8,0,0,0,1.19,1.13,5,5,0,0,0,1.57.61,8.39,8.39,0,0,0,1.71.18,6.17,6.17,0,0,0,3.32-.77A2.38,2.38,0,0,0,371,89.5Z"/><path d="M392.79,92A6.67,6.67,0,0,1,387,95a7.66,7.66,0,0,1-2.77-.48,5.31,5.31,0,0,1-2.12-1.48,6.89,6.89,0,0,1-1.36-2.56,12.81,12.81,0,0,1-.48-3.73V75.22h3.32V86.8a11.41,11.41,0,0,0,.25,2.62,4.16,4.16,0,0,0,.75,1.66,2.7,2.7,0,0,0,1.23.87,5.12,5.12,0,0,0,1.68.25,5.85,5.85,0,0,0,3.28-.83,5,5,0,0,0,1.86-2.23V75.22H396V94.65h-3Z"/><path d="M402.77,67.06h9.93V91.78H419v2.87H402.77V91.78h6.61V70h-6.61Z"/><path d="M449.39,75.22l.23,2.88a7.73,7.73,0,0,1,2.6-2.36,7.17,7.17,0,0,1,3.45-.87,8.47,8.47,0,0,1,2.77.43,5.3,5.3,0,0,1,2.13,1.35A6.13,6.13,0,0,1,461.94,79a10.5,10.5,0,0,1,.48,3.35V94.65h-3.32V82.38a7.25,7.25,0,0,0-.29-2.19,3.49,3.49,0,0,0-.85-1.46,3.34,3.34,0,0,0-1.38-.81,6.38,6.38,0,0,0-1.88-.25,5.21,5.21,0,0,0-2.94.84,6.16,6.16,0,0,0-2,2.2V94.65h-3.32V75.22Z"/><path d="M467.55,84.76a12.11,12.11,0,0,1,.61-3.91,9.34,9.34,0,0,1,1.75-3.13,8.17,8.17,0,0,1,2.77-2.09,8.6,8.6,0,0,1,3.68-.76,8.71,8.71,0,0,1,3.71.76,8.15,8.15,0,0,1,2.78,2.09,9.36,9.36,0,0,1,1.75,3.13,12.12,12.12,0,0,1,.61,3.91v.39a12,12,0,0,1-.61,3.9,9.38,9.38,0,0,1-1.75,3.13,8.06,8.06,0,0,1-2.78,2.08,8.69,8.69,0,0,1-3.68.75,8.79,8.79,0,0,1-3.71-.75,8,8,0,0,1-2.78-2.08A9.36,9.36,0,0,1,468.16,89a12,12,0,0,1-.61-3.9Zm3.32.39a10.76,10.76,0,0,0,.34,2.74,7.07,7.07,0,0,0,1,2.29A5.09,5.09,0,0,0,474,91.74a4.92,4.92,0,0,0,2.43.58,4.84,4.84,0,0,0,2.4-.58,5.11,5.11,0,0,0,1.72-1.56,7.1,7.1,0,0,0,1-2.29,10.78,10.78,0,0,0,.34-2.74v-.39a10.44,10.44,0,0,0-.35-2.72,7.23,7.23,0,0,0-1-2.29,5.22,5.22,0,0,0-1.72-1.57,4.83,4.83,0,0,0-2.42-.58,4.78,4.78,0,0,0-2.41.58,5.24,5.24,0,0,0-1.72,1.57,7.07,7.07,0,0,0-1,2.29,10.69,10.69,0,0,0-.34,2.72Z"/><path d="M492.09,75.22l.09,1.83a4.38,4.38,0,0,1,1.55-1.6,4.58,4.58,0,0,1,2.33-.59,3.5,3.5,0,0,1,3.57,2.08,4.43,4.43,0,0,1,1.52-1.5,4.5,4.5,0,0,1,2.29-.58,4.14,4.14,0,0,1,3.29,1.31,5.89,5.89,0,0,1,1.15,4V94.65h-3.16V80.1q0-2.44-2.25-2.43a2.92,2.92,0,0,0-1,.16,2,2,0,0,0-1.17,1.09,2.87,2.87,0,0,0-.22.76v15H496.9V80.08a2.74,2.74,0,0,0-.52-1.8,2,2,0,0,0-1.65-.61,2.73,2.73,0,0,0-1.62.41,2.4,2.4,0,0,0-.84,1.1V94.65H489.1V75.22Z"/><path d="M521.22,95a9.85,9.85,0,0,1-3.76-.7,8.53,8.53,0,0,1-2.94-2,9,9,0,0,1-1.9-3,10.1,10.1,0,0,1-.68-3.75v-.75a11.13,11.13,0,0,1,.75-4.21,9.66,9.66,0,0,1,2-3.14,8.74,8.74,0,0,1,2.84-2,8.19,8.19,0,0,1,3.26-.68,8.65,8.65,0,0,1,3.67.73,7.2,7.2,0,0,1,2.61,2,8.58,8.58,0,0,1,1.55,3,13.33,13.33,0,0,1,.51,3.77v1.49H515.26a7.63,7.63,0,0,0,.51,2.5,6.47,6.47,0,0,0,1.26,2,5.8,5.8,0,0,0,1.91,1.38,5.9,5.9,0,0,0,2.46.5,6.75,6.75,0,0,0,3.16-.72,6.87,6.87,0,0,0,2.3-1.9l2,1.58a7.71,7.71,0,0,1-1.21,1.41A8.34,8.34,0,0,1,526,93.86a9.42,9.42,0,0,1-2.16.83A10.34,10.34,0,0,1,521.22,95Zm-.43-17.42A4.93,4.93,0,0,0,517.27,79a6.15,6.15,0,0,0-1.21,1.74,8.25,8.25,0,0,0-.69,2.38h10.45v-.25a7.42,7.42,0,0,0-.37-1.92,5.35,5.35,0,0,0-.92-1.71A4.64,4.64,0,0,0,523,78.05,4.84,4.84,0,0,0,520.79,77.59Z"/><path d="M556.16,84.77a13.83,13.83,0,0,1,.55-4,9.53,9.53,0,0,1,1.56-3.13,7.26,7.26,0,0,1,2.45-2,7,7,0,0,1,3.22-.74,7.39,7.39,0,0,1,3,.58,6.37,6.37,0,0,1,2.25,1.7V67.06h3.32V94.65h-3.05l-.14-2A6.36,6.36,0,0,1,567,94.4a7.55,7.55,0,0,1-3.14.61,6.72,6.72,0,0,1-3.19-.75,7.3,7.3,0,0,1-2.43-2.08A10,10,0,0,1,556.72,89a13.11,13.11,0,0,1-.56-3.89Zm3.32.38a11.51,11.51,0,0,0,.31,2.69,7,7,0,0,0,.94,2.25,4.74,4.74,0,0,0,1.63,1.54,4.69,4.69,0,0,0,2.37.57,5.45,5.45,0,0,0,1.53-.2,4.49,4.49,0,0,0,1.24-.57,4.62,4.62,0,0,0,1-.88,6.08,6.08,0,0,0,.75-1.14v-9a5.63,5.63,0,0,0-1.74-1.95,4.67,4.67,0,0,0-2.73-.76,4.72,4.72,0,0,0-2.4.58,4.78,4.78,0,0,0-1.63,1.55,7.11,7.11,0,0,0-.94,2.26,11.62,11.62,0,0,0-.31,2.7Z"/><path d="M587.45,95a9.85,9.85,0,0,1-3.76-.7,8.53,8.53,0,0,1-2.94-2,9,9,0,0,1-1.9-3,10.1,10.1,0,0,1-.68-3.75v-.75a11.13,11.13,0,0,1,.75-4.21,9.66,9.66,0,0,1,2-3.14,8.74,8.74,0,0,1,2.84-2,8.19,8.19,0,0,1,3.26-.68,8.65,8.65,0,0,1,3.67.73,7.2,7.2,0,0,1,2.61,2,8.58,8.58,0,0,1,1.55,3,13.33,13.33,0,0,1,.51,3.77v1.49H581.49a7.63,7.63,0,0,0,.51,2.5,6.47,6.47,0,0,0,1.26,2,5.8,5.8,0,0,0,1.91,1.38,5.9,5.9,0,0,0,2.46.5,6.75,6.75,0,0,0,3.16-.72,6.87,6.87,0,0,0,2.3-1.9l2,1.58a7.71,7.71,0,0,1-1.21,1.41,8.34,8.34,0,0,1-1.68,1.19,9.42,9.42,0,0,1-2.16.83A10.34,10.34,0,0,1,587.45,95ZM587,77.59A4.93,4.93,0,0,0,583.5,79a6.15,6.15,0,0,0-1.21,1.74,8.25,8.25,0,0,0-.69,2.38H592v-.25a7.42,7.42,0,0,0-.37-1.92,5.35,5.35,0,0,0-.92-1.71,4.64,4.64,0,0,0-1.54-1.22A4.84,4.84,0,0,0,587,77.59Z"/><path d="M601.46,67.06h9.93V91.78h6.34v2.87H601.46V91.78h6.61V70h-6.61Z"/><path d="M623.54,67.06h9.93V91.78h6.34v2.87H623.54V91.78h6.61V70h-6.61Z"/><path d="M657.86,94.65a3.58,3.58,0,0,1-.31-.94,10.3,10.3,0,0,1-.17-1.18,9.33,9.33,0,0,1-1.12,1,8,8,0,0,1-1.37.79,8.39,8.39,0,0,1-1.59.54,7.87,7.87,0,0,1-1.8.2,8.2,8.2,0,0,1-2.79-.45,6.51,6.51,0,0,1-2.12-1.21,5.26,5.26,0,0,1-1.35-1.81,5.44,5.44,0,0,1-.48-2.27,5.89,5.89,0,0,1,.64-2.8,5.55,5.55,0,0,1,1.8-2A8.38,8.38,0,0,1,650,83.26a15.73,15.73,0,0,1,3.67-.4h3.63V81.34a3.71,3.71,0,0,0-.32-1.58,3.37,3.37,0,0,0-.92-1.2,4.22,4.22,0,0,0-1.45-.76,6.34,6.34,0,0,0-1.91-.27,5.78,5.78,0,0,0-1.77.25,4.35,4.35,0,0,0-1.32.67,3,3,0,0,0-.83,1,2.51,2.51,0,0,0-.3,1.18h-3.34a4.66,4.66,0,0,1,.55-2.08,5.88,5.88,0,0,1,1.53-1.84,7.93,7.93,0,0,1,2.42-1.32,9.71,9.71,0,0,1,3.24-.5,11.17,11.17,0,0,1,3.07.4,7,7,0,0,1,2.45,1.22,5.78,5.78,0,0,1,1.63,2,6.48,6.48,0,0,1,.59,2.86v9a12.71,12.71,0,0,0,.18,2.06,9.13,9.13,0,0,0,.5,1.89v.29ZM652,92.12a6.31,6.31,0,0,0,1.81-.25,6.75,6.75,0,0,0,1.54-.67,5.58,5.58,0,0,0,1.19-.94,4.57,4.57,0,0,0,.79-1.1V85.22h-3.09a9.76,9.76,0,0,0-4.53.86,2.87,2.87,0,0,0-1.62,2.71,3.56,3.56,0,0,0,.24,1.33,2.8,2.8,0,0,0,.73,1.05,3.46,3.46,0,0,0,1.22.69A5.26,5.26,0,0,0,652,92.12Z"/><path d="M705.65,85.15a14.41,14.41,0,0,1-.5,3.89,9.65,9.65,0,0,1-1.47,3.13,7,7,0,0,1-2.4,2.08A6.88,6.88,0,0,1,698,95a8,8,0,0,1-3.13-.57,6.49,6.49,0,0,1-2.33-1.65v9.34h-3.32V75.22h3l.16,2.12a6.48,6.48,0,0,1,2.34-1.84,7.49,7.49,0,0,1,3.19-.64,7.16,7.16,0,0,1,3.31.74,6.85,6.85,0,0,1,2.41,2,9.41,9.41,0,0,1,1.47,3.13,15,15,0,0,1,.5,4Zm-3.32-.38a11.31,11.31,0,0,0-.31-2.7,7.05,7.05,0,0,0-1-2.26,4.92,4.92,0,0,0-1.66-1.55,4.76,4.76,0,0,0-2.41-.58,4.63,4.63,0,0,0-2.69.75,5.55,5.55,0,0,0-1.73,1.91V89.7a5.47,5.47,0,0,0,1.72,1.88,4.78,4.78,0,0,0,2.73.73,4.67,4.67,0,0,0,2.39-.58A4.87,4.87,0,0,0,701,90.14a7.28,7.28,0,0,0,1-2.28,11.44,11.44,0,0,0,.31-2.71Z"/><path d="M711.84,75.22h9.93V91.78h6.34v2.87H711.84V91.78h6.61V78.11h-6.61Zm6.18-5.1a2,2,0,0,1,.49-1.39,2.26,2.26,0,0,1,3,0,2,2,0,0,1,.5,1.39,1.9,1.9,0,0,1-.5,1.35,2.34,2.34,0,0,1-3,0A1.92,1.92,0,0,1,718,70.12Z"/><path d="M746.17,94.65a3.62,3.62,0,0,1-.31-.94,10.09,10.09,0,0,1-.17-1.18,9.34,9.34,0,0,1-1.12,1,7.92,7.92,0,0,1-1.37.79,8.36,8.36,0,0,1-1.59.54,7.86,7.86,0,0,1-1.8.2,8.2,8.2,0,0,1-2.79-.45,6.51,6.51,0,0,1-2.12-1.21,5.29,5.29,0,0,1-1.35-1.81,5.46,5.46,0,0,1-.48-2.27,5.89,5.89,0,0,1,.64-2.8,5.57,5.57,0,0,1,1.8-2,8.4,8.4,0,0,1,2.81-1.19,15.73,15.73,0,0,1,3.67-.4h3.63V81.34a3.72,3.72,0,0,0-.32-1.58,3.39,3.39,0,0,0-.92-1.2,4.24,4.24,0,0,0-1.45-.76,6.33,6.33,0,0,0-1.91-.27,5.78,5.78,0,0,0-1.77.25,4.34,4.34,0,0,0-1.32.67,3,3,0,0,0-.84,1,2.51,2.51,0,0,0-.3,1.18h-3.34a4.67,4.67,0,0,1,.55-2.08,5.89,5.89,0,0,1,1.53-1.84A7.93,7.93,0,0,1,738,75.36a9.7,9.7,0,0,1,3.24-.5,11.17,11.17,0,0,1,3.07.4,7,7,0,0,1,2.45,1.22,5.78,5.78,0,0,1,1.63,2,6.47,6.47,0,0,1,.59,2.86v9a12.6,12.6,0,0,0,.18,2.06,9.2,9.2,0,0,0,.5,1.89v.29Zm-5.87-2.53a6.31,6.31,0,0,0,1.81-.25,6.73,6.73,0,0,0,1.54-.67,5.56,5.56,0,0,0,1.19-.94,4.59,4.59,0,0,0,.79-1.1V85.22h-3.09a9.75,9.75,0,0,0-4.53.86,2.87,2.87,0,0,0-1.62,2.71,3.56,3.56,0,0,0,.24,1.33,2.8,2.8,0,0,0,.73,1.05,3.46,3.46,0,0,0,1.22.69A5.27,5.27,0,0,0,740.3,92.12Z"/><path d="M758.46,75.22l.23,2.88a7.73,7.73,0,0,1,2.61-2.36,7.17,7.17,0,0,1,3.45-.87,8.47,8.47,0,0,1,2.77.43,5.29,5.29,0,0,1,2.13,1.35A6.13,6.13,0,0,1,771,79a10.53,10.53,0,0,1,.48,3.35V94.65h-3.32V82.38a7.25,7.25,0,0,0-.29-2.19,3.49,3.49,0,0,0-.85-1.46,3.34,3.34,0,0,0-1.38-.81,6.38,6.38,0,0,0-1.88-.25,5.21,5.21,0,0,0-2.94.84,6.16,6.16,0,0,0-2,2.2V94.65h-3.32V75.22Z"/><path d="M785.42,70.51v4.71h7.4v2.57h-7.4V88.35a5.17,5.17,0,0,0,.29,1.87,3,3,0,0,0,.79,1.18,2.91,2.91,0,0,0,1.16.62,5.19,5.19,0,0,0,1.39.18,10,10,0,0,0,1.11-.06c.38,0,.76-.09,1.12-.15l1-.19.78-.17.47,2.35a4.61,4.61,0,0,1-1,.44,11.27,11.27,0,0,1-1.29.32q-.7.13-1.48.21t-1.55.07a7.75,7.75,0,0,1-2.42-.37,5,5,0,0,1-1.95-1.17,5.52,5.52,0,0,1-1.3-2.07,8.73,8.73,0,0,1-.48-3.06V77.79H777V75.22h5.1V70.51Z"/><path d="M812.4,94.65a3.65,3.65,0,0,1-.31-.94,10.53,10.53,0,0,1-.17-1.18,9.27,9.27,0,0,1-1.12,1,7.85,7.85,0,0,1-1.37.79,8.32,8.32,0,0,1-1.59.54,7.85,7.85,0,0,1-1.8.2,8.19,8.19,0,0,1-2.79-.45,6.52,6.52,0,0,1-2.12-1.21,5.3,5.3,0,0,1-1.35-1.81,5.44,5.44,0,0,1-.48-2.27,5.9,5.9,0,0,1,.64-2.8,5.57,5.57,0,0,1,1.81-2,8.39,8.39,0,0,1,2.81-1.19,15.73,15.73,0,0,1,3.67-.4h3.63V81.34a3.74,3.74,0,0,0-.32-1.58,3.4,3.4,0,0,0-.92-1.2,4.24,4.24,0,0,0-1.45-.76,6.34,6.34,0,0,0-1.91-.27,5.79,5.79,0,0,0-1.77.25,4.34,4.34,0,0,0-1.32.67,3,3,0,0,0-.83,1,2.49,2.49,0,0,0-.3,1.18H799.7a4.67,4.67,0,0,1,.55-2.08,5.87,5.87,0,0,1,1.53-1.84,8,8,0,0,1,2.43-1.32,9.7,9.7,0,0,1,3.24-.5,11.18,11.18,0,0,1,3.07.4A7,7,0,0,1,813,76.48a5.77,5.77,0,0,1,1.63,2,6.46,6.46,0,0,1,.59,2.86v9a12.6,12.6,0,0,0,.18,2.06,9.14,9.14,0,0,0,.5,1.89v.29Zm-5.87-2.53a6.32,6.32,0,0,0,1.81-.25,6.74,6.74,0,0,0,1.54-.67,5.59,5.59,0,0,0,1.2-.94,4.65,4.65,0,0,0,.79-1.1V85.22h-3.09a9.76,9.76,0,0,0-4.53.86,2.87,2.87,0,0,0-1.62,2.71,3.58,3.58,0,0,0,.24,1.33,2.8,2.8,0,0,0,.73,1.05,3.45,3.45,0,0,0,1.22.69A5.28,5.28,0,0,0,806.53,92.12Z"/><path d="M175.81,129.3a14.44,14.44,0,0,1-.5,3.89,9.66,9.66,0,0,1-1.47,3.13,7,7,0,0,1-2.4,2.08,6.88,6.88,0,0,1-3.26.75,8,8,0,0,1-3.13-.58,6.51,6.51,0,0,1-2.33-1.65v9.34H159.4V119.36h3l.16,2.12a6.48,6.48,0,0,1,2.34-1.84,7.52,7.52,0,0,1,3.19-.64,7.14,7.14,0,0,1,3.31.74,6.84,6.84,0,0,1,2.41,2,9.45,9.45,0,0,1,1.47,3.13,15,15,0,0,1,.5,4Zm-3.32-.38a11.35,11.35,0,0,0-.31-2.7,7.06,7.06,0,0,0-1-2.26,4.89,4.89,0,0,0-1.66-1.55,4.78,4.78,0,0,0-2.41-.57,4.64,4.64,0,0,0-2.69.74,5.55,5.55,0,0,0-1.73,1.91v9.36a5.46,5.46,0,0,0,1.72,1.88,4.77,4.77,0,0,0,2.73.73,4.68,4.68,0,0,0,2.39-.58,4.87,4.87,0,0,0,1.65-1.57,7.25,7.25,0,0,0,1-2.28,11.44,11.44,0,0,0,.31-2.71Z"/><path d="M190.08,139.16a9.86,9.86,0,0,1-3.76-.7,8.52,8.52,0,0,1-2.94-2,9,9,0,0,1-1.9-3,10.11,10.11,0,0,1-.68-3.75V129a11.11,11.11,0,0,1,.75-4.21,9.67,9.67,0,0,1,2-3.14,8.75,8.75,0,0,1,2.84-2,8.18,8.18,0,0,1,3.26-.68,8.68,8.68,0,0,1,3.67.73,7.22,7.22,0,0,1,2.61,2,8.59,8.59,0,0,1,1.55,3,13.33,13.33,0,0,1,.51,3.77V130H184.11a7.63,7.63,0,0,0,.51,2.5,6.47,6.47,0,0,0,1.26,2,5.81,5.81,0,0,0,1.91,1.37,5.91,5.91,0,0,0,2.46.5,6.76,6.76,0,0,0,3.16-.72,6.85,6.85,0,0,0,2.3-1.9l2,1.58a7.71,7.71,0,0,1-1.21,1.41,8.37,8.37,0,0,1-1.68,1.19,9.46,9.46,0,0,1-2.16.84A10.39,10.39,0,0,1,190.08,139.16Zm-.43-17.42a4.91,4.91,0,0,0-3.52,1.45,6.14,6.14,0,0,0-1.21,1.74,8.27,8.27,0,0,0-.69,2.38h10.45v-.25a7.41,7.41,0,0,0-.37-1.92,5.37,5.37,0,0,0-.92-1.71,4.63,4.63,0,0,0-1.54-1.22A4.83,4.83,0,0,0,189.65,121.73Z"/><path d="M216.3,119l1,0c.34,0,.66,0,1,.09s.59.09.84.15a3.81,3.81,0,0,1,.64.2l-.45,3.25a17.66,17.66,0,0,0-1.84-.31,16.29,16.29,0,0,0-1.82-.1,6.25,6.25,0,0,0-3.78,1.06,6.12,6.12,0,0,0-2.13,3V138.8h-3.34V119.36h3.16l.16,3.09a8.94,8.94,0,0,1,2.85-2.52A7.65,7.65,0,0,1,216.3,119Z"/><path d="M256,136.46a5.46,5.46,0,0,0,1.75-.29,5.18,5.18,0,0,0,1.52-.8,4.17,4.17,0,0,0,1.07-1.2,3.07,3.07,0,0,0,.42-1.5h3.14a5.15,5.15,0,0,1-.67,2.47,7.11,7.11,0,0,1-1.75,2.07,8.93,8.93,0,0,1-2.52,1.42,8.42,8.42,0,0,1-3,.53,8.85,8.85,0,0,1-3.86-.79,8,8,0,0,1-2.76-2.13,9.15,9.15,0,0,1-1.66-3.09,12.11,12.11,0,0,1-.56-3.69v-.75a12.14,12.14,0,0,1,.56-3.68,9.15,9.15,0,0,1,1.66-3.1,8,8,0,0,1,2.76-2.13,9.67,9.67,0,0,1,7-.24,7.89,7.89,0,0,1,2.5,1.49,6.75,6.75,0,0,1,1.64,2.24,6.56,6.56,0,0,1,.59,2.77h-3.14a4.06,4.06,0,0,0-.39-1.66,4.53,4.53,0,0,0-1-1.37,4.6,4.6,0,0,0-1.5-.93,5.1,5.1,0,0,0-1.88-.34,4.81,4.81,0,0,0-4.29,2.24,6.8,6.8,0,0,0-.93,2.24,11.36,11.36,0,0,0-.28,2.5v.75a11.56,11.56,0,0,0,.28,2.52,6.91,6.91,0,0,0,.92,2.25,5,5,0,0,0,1.69,1.62A5.07,5.07,0,0,0,256,136.46Z"/><path d="M268.86,128.9a12.11,12.11,0,0,1,.61-3.91,9.36,9.36,0,0,1,1.75-3.13,8.14,8.14,0,0,1,2.77-2.09,8.6,8.6,0,0,1,3.68-.76,8.71,8.71,0,0,1,3.71.76,8.13,8.13,0,0,1,2.78,2.09,9.38,9.38,0,0,1,1.75,3.13,12.13,12.13,0,0,1,.61,3.91v.4a12,12,0,0,1-.61,3.9,9.37,9.37,0,0,1-1.75,3.13,8.06,8.06,0,0,1-2.78,2.08,8.69,8.69,0,0,1-3.68.75,8.79,8.79,0,0,1-3.71-.75,8,8,0,0,1-2.78-2.08,9.35,9.35,0,0,1-1.75-3.13,12,12,0,0,1-.61-3.9Zm3.32.4a10.76,10.76,0,0,0,.34,2.74,7.08,7.08,0,0,0,1,2.29,5.1,5.1,0,0,0,1.73,1.56,4.94,4.94,0,0,0,2.43.57,4.86,4.86,0,0,0,2.4-.57,5.12,5.12,0,0,0,1.72-1.56,7.1,7.1,0,0,0,1-2.29,10.79,10.79,0,0,0,.34-2.74v-.4a10.44,10.44,0,0,0-.35-2.72,7.25,7.25,0,0,0-1-2.29,5.23,5.23,0,0,0-1.72-1.57,4.82,4.82,0,0,0-2.42-.58,4.77,4.77,0,0,0-2.41.58,5.25,5.25,0,0,0-1.72,1.57,7.09,7.09,0,0,0-1,2.29,10.69,10.69,0,0,0-.34,2.72Z"/><path d="M294.85,119.36l.23,2.87a7.71,7.71,0,0,1,2.6-2.36,7.15,7.15,0,0,1,3.45-.87,8.44,8.44,0,0,1,2.77.43,5.3,5.3,0,0,1,2.13,1.35,6.14,6.14,0,0,1,1.36,2.33,10.51,10.51,0,0,1,.48,3.35V138.8h-3.32V126.53a7.27,7.27,0,0,0-.29-2.19,3.5,3.5,0,0,0-.85-1.46,3.33,3.33,0,0,0-1.38-.81,6.38,6.38,0,0,0-1.88-.25,5.21,5.21,0,0,0-2.94.83,6.17,6.17,0,0,0-2,2.2V138.8h-3.32V119.36Z"/><path d="M321.82,114.66v4.71h7.4v2.57h-7.4v10.56a5.18,5.18,0,0,0,.29,1.87,3,3,0,0,0,.79,1.18,2.9,2.9,0,0,0,1.16.62,5.27,5.27,0,0,0,1.39.18,10.23,10.23,0,0,0,1.11-.06q.57-.06,1.12-.15l1-.19.78-.17.47,2.35a4.65,4.65,0,0,1-1,.44,11.27,11.27,0,0,1-1.29.32q-.7.13-1.48.21c-.52,0-1,.07-1.55.07a7.69,7.69,0,0,1-2.42-.37,5,5,0,0,1-1.95-1.17,5.51,5.51,0,0,1-1.3-2.06,8.73,8.73,0,0,1-.48-3.06V121.93h-5.1v-2.57h5.1v-4.71Z"/><path d="M348.76,119l1,0c.34,0,.66,0,1,.09s.59.09.84.15a3.81,3.81,0,0,1,.64.2l-.45,3.25a17.66,17.66,0,0,0-1.84-.31,16.29,16.29,0,0,0-1.82-.1,6.25,6.25,0,0,0-3.78,1.06,6.12,6.12,0,0,0-2.13,3V138.8h-3.34V119.36H342l.16,3.09a8.94,8.94,0,0,1,2.85-2.52A7.65,7.65,0,0,1,348.76,119Z"/><path d="M357.17,128.9a12.11,12.11,0,0,1,.61-3.91,9.36,9.36,0,0,1,1.75-3.13,8.14,8.14,0,0,1,2.77-2.09A8.6,8.6,0,0,1,366,119a8.71,8.71,0,0,1,3.71.76,8.13,8.13,0,0,1,2.78,2.09,9.38,9.38,0,0,1,1.75,3.13,12.13,12.13,0,0,1,.61,3.91v.4a12,12,0,0,1-.61,3.9,9.37,9.37,0,0,1-1.75,3.13,8.06,8.06,0,0,1-2.78,2.08,8.69,8.69,0,0,1-3.68.75,8.79,8.79,0,0,1-3.71-.75,8,8,0,0,1-2.78-2.08,9.35,9.35,0,0,1-1.75-3.13,12,12,0,0,1-.61-3.9Zm3.32.4a10.76,10.76,0,0,0,.34,2.74,7.08,7.08,0,0,0,1,2.29,5.1,5.1,0,0,0,1.73,1.56,4.94,4.94,0,0,0,2.43.57,4.86,4.86,0,0,0,2.4-.57,5.12,5.12,0,0,0,1.72-1.56,7.1,7.1,0,0,0,1-2.29,10.79,10.79,0,0,0,.34-2.74v-.4a10.44,10.44,0,0,0-.35-2.72,7.25,7.25,0,0,0-1-2.29,5.23,5.23,0,0,0-1.72-1.57,4.82,4.82,0,0,0-2.42-.58,4.77,4.77,0,0,0-2.41.58,5.25,5.25,0,0,0-1.72,1.57,7.09,7.09,0,0,0-1,2.29,10.69,10.69,0,0,0-.34,2.72Z"/><path d="M380.7,111.21h9.93v24.72H397v2.88H380.7v-2.87h6.61V114.1H380.7Z"/><path d="M402.77,111.21h9.93v24.72H419v2.88H402.77v-2.87h6.61V114.1h-6.61Z"/><path d="M437.1,138.8a3.64,3.64,0,0,1-.31-.94,10.38,10.38,0,0,1-.17-1.18,9.3,9.3,0,0,1-1.12,1,8,8,0,0,1-1.37.79,8.42,8.42,0,0,1-1.59.54,7.86,7.86,0,0,1-1.8.2,8.22,8.22,0,0,1-2.79-.45,6.52,6.52,0,0,1-2.12-1.21,5.27,5.27,0,0,1-1.35-1.81,5.44,5.44,0,0,1-.48-2.27,5.9,5.9,0,0,1,.64-2.8,5.54,5.54,0,0,1,1.81-2,8.43,8.43,0,0,1,2.81-1.19,15.73,15.73,0,0,1,3.67-.4h3.63v-1.53a3.73,3.73,0,0,0-.32-1.58,3.36,3.36,0,0,0-.92-1.19,4.2,4.2,0,0,0-1.45-.76,6.34,6.34,0,0,0-1.91-.27,5.76,5.76,0,0,0-1.77.25,4.34,4.34,0,0,0-1.32.66,3,3,0,0,0-.83,1,2.51,2.51,0,0,0-.3,1.18H424.4a4.66,4.66,0,0,1,.55-2.08,5.88,5.88,0,0,1,1.53-1.84,8,8,0,0,1,2.43-1.32,9.76,9.76,0,0,1,3.24-.5,11.17,11.17,0,0,1,3.07.4,7,7,0,0,1,2.45,1.22,5.78,5.78,0,0,1,1.63,2,6.46,6.46,0,0,1,.59,2.86v9a12.64,12.64,0,0,0,.18,2.06,9.13,9.13,0,0,0,.5,1.9v.29Zm-5.87-2.53A6.32,6.32,0,0,0,433,136a6.7,6.7,0,0,0,1.54-.66,5.59,5.59,0,0,0,1.19-.94,4.61,4.61,0,0,0,.79-1.1v-3.93h-3.09a9.74,9.74,0,0,0-4.53.86,2.87,2.87,0,0,0-1.62,2.71,3.56,3.56,0,0,0,.24,1.33,2.78,2.78,0,0,0,.73,1.05,3.43,3.43,0,0,0,1.22.69A5.27,5.27,0,0,0,431.23,136.27Z"/><path d="M459.14,119l1,0c.34,0,.66,0,1,.09s.59.09.84.15a3.81,3.81,0,0,1,.64.2l-.45,3.25a17.66,17.66,0,0,0-1.84-.31,16.29,16.29,0,0,0-1.82-.1,6.25,6.25,0,0,0-3.78,1.06,6.12,6.12,0,0,0-2.13,3V138.8h-3.34V119.36h3.16l.16,3.09a8.94,8.94,0,0,1,2.85-2.52A7.65,7.65,0,0,1,459.14,119Z"/><path d="M477.07,139.16a9.86,9.86,0,0,1-3.76-.7,8.52,8.52,0,0,1-2.94-2,9,9,0,0,1-1.9-3,10.11,10.11,0,0,1-.68-3.75V129a11.11,11.11,0,0,1,.75-4.21,9.67,9.67,0,0,1,2-3.14,8.75,8.75,0,0,1,2.84-2,8.18,8.18,0,0,1,3.26-.68,8.68,8.68,0,0,1,3.67.73,7.22,7.22,0,0,1,2.61,2,8.59,8.59,0,0,1,1.55,3,13.33,13.33,0,0,1,.51,3.77V130H471.11a7.63,7.63,0,0,0,.51,2.5,6.47,6.47,0,0,0,1.26,2,5.81,5.81,0,0,0,1.91,1.37,5.91,5.91,0,0,0,2.46.5,6.76,6.76,0,0,0,3.16-.72,6.85,6.85,0,0,0,2.3-1.9l2,1.58a7.71,7.71,0,0,1-1.21,1.41,8.37,8.37,0,0,1-1.68,1.19,9.46,9.46,0,0,1-2.16.84A10.39,10.39,0,0,1,477.07,139.16Zm-.43-17.42a4.91,4.91,0,0,0-3.52,1.45,6.14,6.14,0,0,0-1.21,1.74,8.27,8.27,0,0,0-.69,2.38h10.45v-.25a7.41,7.41,0,0,0-.37-1.92,5.37,5.37,0,0,0-.92-1.71,4.63,4.63,0,0,0-1.54-1.22A4.83,4.83,0,0,0,476.64,121.73Z"/><path d="M520.92,136.46a5.46,5.46,0,0,0,1.75-.29,5.18,5.18,0,0,0,1.52-.8,4.17,4.17,0,0,0,1.07-1.2,3.07,3.07,0,0,0,.42-1.5h3.14a5.15,5.15,0,0,1-.67,2.47,7.11,7.11,0,0,1-1.75,2.07,8.93,8.93,0,0,1-2.52,1.42,8.42,8.42,0,0,1-3,.53,8.85,8.85,0,0,1-3.86-.79,8,8,0,0,1-2.76-2.13,9.15,9.15,0,0,1-1.66-3.09,12.11,12.11,0,0,1-.56-3.69v-.75a12.14,12.14,0,0,1,.56-3.68,9.15,9.15,0,0,1,1.66-3.1,8,8,0,0,1,2.76-2.13,9.67,9.67,0,0,1,7-.24,7.89,7.89,0,0,1,2.5,1.49,6.75,6.75,0,0,1,1.64,2.24,6.56,6.56,0,0,1,.59,2.77h-3.14a4.06,4.06,0,0,0-.39-1.66,4.53,4.53,0,0,0-1-1.37,4.6,4.6,0,0,0-1.5-.93,5.1,5.1,0,0,0-1.88-.34,4.81,4.81,0,0,0-4.29,2.24,6.8,6.8,0,0,0-.93,2.24,11.36,11.36,0,0,0-.28,2.5v.75a11.56,11.56,0,0,0,.28,2.52,6.91,6.91,0,0,0,.92,2.25,5,5,0,0,0,1.69,1.62A5.07,5.07,0,0,0,520.92,136.46Z"/><path d="M533.78,128.9a12.11,12.11,0,0,1,.61-3.91,9.36,9.36,0,0,1,1.75-3.13,8.14,8.14,0,0,1,2.77-2.09,8.6,8.6,0,0,1,3.68-.76,8.71,8.71,0,0,1,3.71.76,8.13,8.13,0,0,1,2.78,2.09,9.38,9.38,0,0,1,1.75,3.13,12.13,12.13,0,0,1,.61,3.91v.4a12,12,0,0,1-.61,3.9,9.37,9.37,0,0,1-1.75,3.13,8.06,8.06,0,0,1-2.78,2.08,8.69,8.69,0,0,1-3.68.75,8.79,8.79,0,0,1-3.71-.75,8,8,0,0,1-2.78-2.08,9.35,9.35,0,0,1-1.75-3.13,12,12,0,0,1-.61-3.9Zm3.32.4a10.76,10.76,0,0,0,.34,2.74,7.08,7.08,0,0,0,1,2.29,5.1,5.1,0,0,0,1.73,1.56,4.94,4.94,0,0,0,2.43.57,4.86,4.86,0,0,0,2.4-.57,5.12,5.12,0,0,0,1.72-1.56,7.1,7.1,0,0,0,1-2.29,10.79,10.79,0,0,0,.34-2.74v-.4a10.44,10.44,0,0,0-.35-2.72,7.25,7.25,0,0,0-1-2.29,5.23,5.23,0,0,0-1.72-1.57,4.82,4.82,0,0,0-2.42-.58,4.77,4.77,0,0,0-2.41.58,5.25,5.25,0,0,0-1.72,1.57,7.09,7.09,0,0,0-1,2.29,10.69,10.69,0,0,0-.34,2.72Z"/><path d="M558.31,119.36l.09,1.83a4.38,4.38,0,0,1,1.55-1.6,4.57,4.57,0,0,1,2.33-.59,3.5,3.5,0,0,1,3.57,2.08,4.29,4.29,0,0,1,3.81-2.08,4.14,4.14,0,0,1,3.29,1.31,5.89,5.89,0,0,1,1.15,4V138.8h-3.16V124.25q0-2.44-2.25-2.42a2.9,2.9,0,0,0-1,.16,2,2,0,0,0-.72.44,2,2,0,0,0-.45.65,2.85,2.85,0,0,0-.22.76v15h-3.16V124.23a2.75,2.75,0,0,0-.52-1.8,2,2,0,0,0-1.65-.61,2.73,2.73,0,0,0-1.62.41,2.4,2.4,0,0,0-.84,1.1V138.8h-3.16V119.36Z"/><path d="M587.45,139.16a9.86,9.86,0,0,1-3.76-.7,8.52,8.52,0,0,1-2.94-2,9,9,0,0,1-1.9-3,10.11,10.11,0,0,1-.68-3.75V129a11.11,11.11,0,0,1,.75-4.21,9.67,9.67,0,0,1,2-3.14,8.75,8.75,0,0,1,2.84-2A8.18,8.18,0,0,1,587,119a8.68,8.68,0,0,1,3.67.73,7.22,7.22,0,0,1,2.61,2,8.59,8.59,0,0,1,1.55,3,13.33,13.33,0,0,1,.51,3.77V130H581.49a7.63,7.63,0,0,0,.51,2.5,6.47,6.47,0,0,0,1.26,2,5.81,5.81,0,0,0,1.91,1.37,5.91,5.91,0,0,0,2.46.5,6.76,6.76,0,0,0,3.16-.72,6.85,6.85,0,0,0,2.3-1.9l2,1.58a7.71,7.71,0,0,1-1.21,1.41,8.37,8.37,0,0,1-1.68,1.19,9.46,9.46,0,0,1-2.16.84A10.39,10.39,0,0,1,587.45,139.16ZM587,121.73a4.91,4.91,0,0,0-3.52,1.45,6.14,6.14,0,0,0-1.21,1.74,8.27,8.27,0,0,0-.69,2.38H592v-.25a7.41,7.41,0,0,0-.37-1.92,5.37,5.37,0,0,0-.92-1.71,4.63,4.63,0,0,0-1.54-1.22A4.83,4.83,0,0,0,587,121.73Z"/><path d="M635.93,133.64a2.2,2.2,0,0,0-1-1.94,6.22,6.22,0,0,0-1.47-.73,15.66,15.66,0,0,0-2.28-.6,22.88,22.88,0,0,1-3-.83,10,10,0,0,1-2.35-1.16,5.07,5.07,0,0,1-1.52-1.58,4.06,4.06,0,0,1-.54-2.11,4.61,4.61,0,0,1,.56-2.22,5.66,5.66,0,0,1,1.56-1.8,7.86,7.86,0,0,1,2.4-1.22,9.92,9.92,0,0,1,3.06-.45,10.44,10.44,0,0,1,3.23.47,7.41,7.41,0,0,1,2.44,1.29,5.83,5.83,0,0,1,1.55,1.93,5.28,5.28,0,0,1,.55,2.38h-3.32a2.58,2.58,0,0,0-.32-1.23,3.56,3.56,0,0,0-.9-1.07,4.63,4.63,0,0,0-1.39-.75,5.53,5.53,0,0,0-1.84-.29,6.66,6.66,0,0,0-1.86.23,4.16,4.16,0,0,0-1.33.63,2.68,2.68,0,0,0-.8.92,2.41,2.41,0,0,0-.05,2.1,2.1,2.1,0,0,0,.75.81,5.61,5.61,0,0,0,1.42.65,20.44,20.44,0,0,0,2.25.56,26.6,26.6,0,0,1,3.22.87,9.49,9.49,0,0,1,2.39,1.19,5,5,0,0,1,1.48,1.61,4.28,4.28,0,0,1,.51,2.12,4.8,4.8,0,0,1-.58,2.35,5.51,5.51,0,0,1-1.63,1.81,7.86,7.86,0,0,1-2.5,1.17,11.61,11.61,0,0,1-3.18.41,10.84,10.84,0,0,1-3.52-.53,8.4,8.4,0,0,1-2.61-1.4,6,6,0,0,1-1.63-2,5.33,5.33,0,0,1-.57-2.39h3.32a3.44,3.44,0,0,0,.55,1.72,3.82,3.82,0,0,0,1.19,1.13,4.9,4.9,0,0,0,1.57.61,8.31,8.31,0,0,0,1.71.18,6.19,6.19,0,0,0,3.32-.77A2.38,2.38,0,0,0,635.93,133.64Z"/><path d="M653,114.66v4.71h7.4v2.57H653v10.56a5.19,5.19,0,0,0,.29,1.87,3,3,0,0,0,.79,1.18,2.89,2.89,0,0,0,1.16.62,5.27,5.27,0,0,0,1.39.18,10.22,10.22,0,0,0,1.11-.06q.57-.06,1.12-.15l1-.19.78-.17.47,2.35a4.64,4.64,0,0,1-1,.44,11.26,11.26,0,0,1-1.29.32q-.7.13-1.48.21c-.52,0-1,.07-1.55.07a7.68,7.68,0,0,1-2.42-.37,5,5,0,0,1-1.95-1.17,5.52,5.52,0,0,1-1.3-2.06,8.73,8.73,0,0,1-.48-3.06V121.93h-5.1v-2.57h5.1v-4.71Z"/><path d="M679.94,138.8a3.6,3.6,0,0,1-.31-.94,10.27,10.27,0,0,1-.17-1.18,9.33,9.33,0,0,1-1.12,1,8.09,8.09,0,0,1-1.37.79,8.46,8.46,0,0,1-1.59.54,7.87,7.87,0,0,1-1.8.2,8.22,8.22,0,0,1-2.79-.45,6.52,6.52,0,0,1-2.12-1.21,5.25,5.25,0,0,1-1.35-1.81,5.44,5.44,0,0,1-.48-2.27,5.89,5.89,0,0,1,.64-2.8,5.53,5.53,0,0,1,1.8-2,8.42,8.42,0,0,1,2.81-1.19,15.73,15.73,0,0,1,3.67-.4h3.63v-1.53a3.71,3.71,0,0,0-.32-1.58,3.35,3.35,0,0,0-.92-1.19,4.19,4.19,0,0,0-1.45-.76,6.34,6.34,0,0,0-1.91-.27,5.75,5.75,0,0,0-1.77.25,4.35,4.35,0,0,0-1.32.66,3,3,0,0,0-.83,1,2.51,2.51,0,0,0-.3,1.18h-3.34a4.65,4.65,0,0,1,.55-2.08,5.88,5.88,0,0,1,1.53-1.84,8,8,0,0,1,2.42-1.32A9.76,9.76,0,0,1,675,119a11.17,11.17,0,0,1,3.07.4,7,7,0,0,1,2.45,1.22,5.78,5.78,0,0,1,1.63,2,6.48,6.48,0,0,1,.59,2.86v9a12.7,12.7,0,0,0,.18,2.06,9.13,9.13,0,0,0,.5,1.9v.29Zm-5.87-2.53a6.31,6.31,0,0,0,1.81-.25,6.71,6.71,0,0,0,1.54-.66,5.58,5.58,0,0,0,1.19-.94,4.57,4.57,0,0,0,.79-1.1v-3.93h-3.09a9.74,9.74,0,0,0-4.53.86,2.87,2.87,0,0,0-1.62,2.71,3.55,3.55,0,0,0,.24,1.33,2.78,2.78,0,0,0,.73,1.05,3.43,3.43,0,0,0,1.22.69A5.26,5.26,0,0,0,674.07,136.27Z"/><path d="M724.09,138.8a3.64,3.64,0,0,1-.31-.94,10.06,10.06,0,0,1-.17-1.18,9.34,9.34,0,0,1-1.12,1,8,8,0,0,1-1.37.79,8.43,8.43,0,0,1-1.59.54,7.86,7.86,0,0,1-1.8.2,8.22,8.22,0,0,1-2.79-.45,6.52,6.52,0,0,1-2.12-1.21,5.28,5.28,0,0,1-1.35-1.81,5.45,5.45,0,0,1-.48-2.27,5.89,5.89,0,0,1,.64-2.8,5.55,5.55,0,0,1,1.8-2,8.44,8.44,0,0,1,2.81-1.19,15.73,15.73,0,0,1,3.67-.4h3.63v-1.53a3.73,3.73,0,0,0-.32-1.58,3.37,3.37,0,0,0-.92-1.19,4.21,4.21,0,0,0-1.45-.76,6.33,6.33,0,0,0-1.91-.27,5.75,5.75,0,0,0-1.77.25,4.33,4.33,0,0,0-1.32.66,3,3,0,0,0-.84,1,2.51,2.51,0,0,0-.3,1.18h-3.34a4.66,4.66,0,0,1,.55-2.08,5.89,5.89,0,0,1,1.53-1.84,8,8,0,0,1,2.43-1.32,9.75,9.75,0,0,1,3.24-.5,11.17,11.17,0,0,1,3.07.4,7,7,0,0,1,2.45,1.22,5.78,5.78,0,0,1,1.63,2,6.46,6.46,0,0,1,.59,2.86v9a12.59,12.59,0,0,0,.18,2.06,9.19,9.19,0,0,0,.5,1.9v.29Zm-5.87-2.53A6.31,6.31,0,0,0,720,136a6.68,6.68,0,0,0,1.54-.66,5.56,5.56,0,0,0,1.19-.94,4.59,4.59,0,0,0,.79-1.1v-3.93h-3.09a9.74,9.74,0,0,0-4.53.86,2.87,2.87,0,0,0-1.62,2.71,3.55,3.55,0,0,0,.24,1.33,2.79,2.79,0,0,0,.73,1.05,3.43,3.43,0,0,0,1.22.69A5.27,5.27,0,0,0,718.22,136.27Z"/><path d="M736.38,119.36l.23,2.87a7.72,7.72,0,0,1,2.61-2.36,7.15,7.15,0,0,1,3.45-.87,8.44,8.44,0,0,1,2.77.43,5.3,5.3,0,0,1,2.13,1.35,6.15,6.15,0,0,1,1.36,2.33,10.54,10.54,0,0,1,.48,3.35V138.8h-3.32V126.53a7.27,7.27,0,0,0-.29-2.19,3.5,3.5,0,0,0-.85-1.46,3.32,3.32,0,0,0-1.38-.81,6.38,6.38,0,0,0-1.88-.25,5.21,5.21,0,0,0-2.94.83,6.17,6.17,0,0,0-2,2.2V138.8H733.4V119.36Z"/><path d="M754.85,128.92a13.82,13.82,0,0,1,.55-4,9.53,9.53,0,0,1,1.56-3.13,7.25,7.25,0,0,1,2.45-2,7,7,0,0,1,3.22-.74,7.39,7.39,0,0,1,3,.58,6.35,6.35,0,0,1,2.25,1.7V111.21h3.32V138.8h-3.05l-.14-2a6.36,6.36,0,0,1-2.32,1.8,7.56,7.56,0,0,1-3.14.61,6.72,6.72,0,0,1-3.19-.75,7.31,7.31,0,0,1-2.43-2.08,10.06,10.06,0,0,1-1.56-3.13,13.14,13.14,0,0,1-.56-3.89Zm3.32.38a11.5,11.5,0,0,0,.31,2.69,7,7,0,0,0,.94,2.25,4.52,4.52,0,0,0,4,2.1,5.49,5.49,0,0,0,1.53-.2,4.49,4.49,0,0,0,1.24-.57,4.61,4.61,0,0,0,1-.88,6,6,0,0,0,.75-1.14v-9a5.64,5.64,0,0,0-1.74-1.95,4.67,4.67,0,0,0-2.73-.76,4.55,4.55,0,0,0-4,2.13,7.12,7.12,0,0,0-.94,2.26,11.64,11.64,0,0,0-.31,2.7Z"/><path d="M790.32,138.8a3.68,3.68,0,0,1-.31-.94,10.5,10.5,0,0,1-.17-1.18,9.27,9.27,0,0,1-1.12,1,8,8,0,0,1-1.37.79,8.39,8.39,0,0,1-1.59.54,7.85,7.85,0,0,1-1.8.2,8.22,8.22,0,0,1-2.79-.45,6.52,6.52,0,0,1-2.12-1.21,5.29,5.29,0,0,1-1.35-1.81,5.44,5.44,0,0,1-.48-2.27,5.9,5.9,0,0,1,.64-2.8,5.55,5.55,0,0,1,1.81-2,8.43,8.43,0,0,1,2.81-1.19,15.73,15.73,0,0,1,3.67-.4h3.63v-1.53a3.74,3.74,0,0,0-.32-1.58,3.38,3.38,0,0,0-.92-1.19,4.21,4.21,0,0,0-1.45-.76,6.34,6.34,0,0,0-1.91-.27,5.76,5.76,0,0,0-1.77.25,4.33,4.33,0,0,0-1.32.66,3,3,0,0,0-.83,1,2.5,2.5,0,0,0-.3,1.18h-3.34a4.67,4.67,0,0,1,.55-2.08,5.88,5.88,0,0,1,1.53-1.84,8,8,0,0,1,2.43-1.32,9.75,9.75,0,0,1,3.24-.5,11.18,11.18,0,0,1,3.07.4,7,7,0,0,1,2.45,1.22,5.77,5.77,0,0,1,1.63,2,6.45,6.45,0,0,1,.59,2.86v9a12.59,12.59,0,0,0,.18,2.06,9.13,9.13,0,0,0,.5,1.9v.29Zm-5.87-2.53a6.32,6.32,0,0,0,1.81-.25,6.69,6.69,0,0,0,1.54-.66,5.59,5.59,0,0,0,1.2-.94,4.65,4.65,0,0,0,.79-1.1v-3.93h-3.09a9.74,9.74,0,0,0-4.53.86,2.87,2.87,0,0,0-1.62,2.71,3.57,3.57,0,0,0,.24,1.33,2.78,2.78,0,0,0,.73,1.05,3.42,3.42,0,0,0,1.22.69A5.27,5.27,0,0,0,784.45,136.27Z"/><path d="M802.61,119.36l.23,2.87a7.71,7.71,0,0,1,2.6-2.36,7.15,7.15,0,0,1,3.45-.87,8.45,8.45,0,0,1,2.78.43,5.31,5.31,0,0,1,2.13,1.35,6.15,6.15,0,0,1,1.36,2.33,10.51,10.51,0,0,1,.48,3.35V138.8h-3.32V126.53a7.27,7.27,0,0,0-.29-2.19,3.49,3.49,0,0,0-.85-1.46,3.32,3.32,0,0,0-1.38-.81,6.38,6.38,0,0,0-1.88-.25,5.22,5.22,0,0,0-2.94.83,6.16,6.16,0,0,0-2,2.2V138.8h-3.32V119.36Z"/><path d="M821.07,128.92a13.85,13.85,0,0,1,.55-4,9.57,9.57,0,0,1,1.56-3.13,7.25,7.25,0,0,1,2.45-2,7,7,0,0,1,3.22-.74,7.4,7.4,0,0,1,3,.58,6.36,6.36,0,0,1,2.25,1.7V111.21h3.32V138.8h-3.05l-.14-2a6.35,6.35,0,0,1-2.32,1.8,7.57,7.57,0,0,1-3.14.61,6.71,6.71,0,0,1-3.19-.75,7.29,7.29,0,0,1-2.43-2.08,10,10,0,0,1-1.56-3.13,13.11,13.11,0,0,1-.56-3.89Zm3.32.38a11.56,11.56,0,0,0,.3,2.69,7,7,0,0,0,.94,2.25,4.52,4.52,0,0,0,4,2.1,5.48,5.48,0,0,0,1.53-.2,4.5,4.5,0,0,0,1.24-.57,4.63,4.63,0,0,0,1-.88,6,6,0,0,0,.75-1.14v-9a5.65,5.65,0,0,0-1.74-1.95,4.67,4.67,0,0,0-2.73-.76,4.55,4.55,0,0,0-4,2.13,7.12,7.12,0,0,0-.94,2.26,11.69,11.69,0,0,0-.3,2.7Z"/><path d="M842.85,128.9a12.09,12.09,0,0,1,.61-3.91,9.35,9.35,0,0,1,1.75-3.13,8.15,8.15,0,0,1,2.77-2.09,8.61,8.61,0,0,1,3.68-.76,8.71,8.71,0,0,1,3.71.76,8.13,8.13,0,0,1,2.78,2.09,9.35,9.35,0,0,1,1.75,3.13,12.11,12.11,0,0,1,.61,3.91v.4a12,12,0,0,1-.61,3.9,9.35,9.35,0,0,1-1.75,3.13,8.06,8.06,0,0,1-2.78,2.08,8.69,8.69,0,0,1-3.68.75,8.79,8.79,0,0,1-3.71-.75,8,8,0,0,1-2.78-2.08,9.35,9.35,0,0,1-1.75-3.13,12,12,0,0,1-.61-3.9Zm3.32.4a10.81,10.81,0,0,0,.34,2.74,7.09,7.09,0,0,0,1,2.29,5.1,5.1,0,0,0,1.73,1.56,4.94,4.94,0,0,0,2.42.57,4.86,4.86,0,0,0,2.4-.57,5.13,5.13,0,0,0,1.72-1.56,7.11,7.11,0,0,0,1-2.29,10.81,10.81,0,0,0,.34-2.74v-.4a10.44,10.44,0,0,0-.35-2.72,7.26,7.26,0,0,0-1-2.29,5.24,5.24,0,0,0-1.72-1.57,5.28,5.28,0,0,0-4.82,0,5.26,5.26,0,0,0-1.71,1.57,7.1,7.1,0,0,0-1,2.29,10.73,10.73,0,0,0-.34,2.72Z"/><path d="M871.46,137.06a2.08,2.08,0,0,1,.51-1.44,2,2,0,0,1,1.54-.58,2,2,0,0,1,1.55.58,2,2,0,0,1,.53,1.44,1.93,1.93,0,0,1-.53,1.38,2,2,0,0,1-1.55.56,2,2,0,0,1-1.54-.56A2,2,0,0,1,871.46,137.06Zm3.66-6.72h-3.34V112.64h3.34Z"/><path class="cls-1" d="M75.12,103.95c9.78,29.77-19.17,66-19.17,66S12.08,157.65,2.3,127.88c-9.22-28.07,20.2-68.25,18.22-65.72C20.52,62.16,65.34,74.17,75.12,103.95Z"/><path class="cls-2" d="M28.93,107.38a11.16,11.16,0,0,1-7.12,14.08c-5.85,1.92-13.11-1-15-6.8S9,102.19,14.85,100.27A11.16,11.16,0,0,1,28.93,107.38Z"/><circle class="cls-3" cx="18.33" cy="110.87" r="3.33" transform="translate(-33.69 11.26) rotate(-18.19)"/><circle class="cls-2" cx="53.07" cy="99.45" r="11.16" transform="translate(-28.39 21.54) rotate(-18.19)"/><circle class="cls-3" cx="53.07" cy="99.45" r="3.33" transform="translate(-28.39 21.54) rotate(-18.19)"/><path class="cls-4" d="M57.9,120.59,27,130.75a16.89,16.89,0,0,0,8.82,6.69l19-6.23A16.89,16.89,0,0,0,57.9,120.59Z"/><path class="cls-5" d="M25,126.66,57.09,116.1a17,17,0,0,1,.81,4.48L27,130.75A17,17,0,0,1,25,126.66Z"/><path class="cls-5" d="M35.79,137.44l19-6.23a20.06,20.06,0,0,1-9.41,6.54C41.8,138.92,39.09,138.51,35.79,137.44Z"/><polyline class="cls-6" points="183.3 169.5 119.59 169.5 119.59 116.22 90.31 116.22 121.95 84.58 121.67 0.5 184.17 0.5"/></svg>