<svg id="Layer_1" data-name="Layer 1" xmlns="http://www.w3.org/2000/svg" viewBox="0 0 77.64 109"><defs><style>.cls-1{fill:#65d67d;}.cls-1,.cls-4,.cls-5{stroke:#1d1d1b;stroke-miterlimit:10;}.cls-2,.cls-5{fill:#fff;}.cls-3{fill:#2bc2fd;}.cls-4{fill:#fe5f43;}</style></defs><title>mascot</title><path class="cls-1" d="M75.12,42.4c9.78,29.77-19.17,66-19.17,66S12.08,96.1,2.3,66.33C-6.93,38.26,22.49-1.92,20.52.61,20.52.61,65.34,12.63,75.12,42.4Z"/><path class="cls-2" d="M28.93,45.84a11.16,11.16,0,0,1-7.12,14.08c-5.85,1.92-13.11-1-15-6.8S9,40.64,14.85,38.72A11.16,11.16,0,0,1,28.93,45.84Z"/><circle class="cls-3" cx="18.33" cy="49.32" r="3.33" transform="translate(-14.48 8.19) rotate(-18.19)"/><circle class="cls-2" cx="53.07" cy="37.9" r="11.16" transform="translate(-9.18 18.46) rotate(-18.19)"/><circle class="cls-3" cx="53.07" cy="37.9" r="3.33" transform="translate(-9.18 18.46) rotate(-18.19)"/><path class="cls-4" d="M57.9,59,27,69.2a16.89,16.89,0,0,0,8.82,6.69l19-6.23A16.89,16.89,0,0,0,57.9,59Z"/><path class="cls-5" d="M25,65.11,57.09,54.56A17,17,0,0,1,57.9,59L27,69.2A17,17,0,0,1,25,65.11Z"/><path class="cls-5" d="M35.79,75.89l19-6.23a20.06,20.06,0,0,1-9.41,6.54C41.8,77.37,39.09,77,35.79,75.89Z"/></svg>