<svg xmlns="http://www.w3.org/2000/svg" xmlns:xlink="http://www.w3.org/1999/xlink" viewBox="0 0 333.56 279.19"><defs><style>.cls-1{isolation:isolate;}.cls-2,.cls-6,.cls-9{fill:#fff;}.cls-2{stroke:#000;}.cls-11,.cls-2,.cls-3,.cls-4,.cls-5,.cls-6{stroke-miterlimit:10;}.cls-3{stroke:#222221;fill:url(#linear-gradient);}.cls-4{fill:#65d67d;}.cls-4,.cls-5,.cls-6,.cls-8{stroke:#1d1d1b;}.cls-5{fill:#fe5f43;}.cls-7{fill:#2bc2fd;opacity:0.86;mix-blend-mode:soft-light;}.cls-8{fill:none;stroke-linejoin:round;}.cls-11,.cls-8{stroke-linecap:round;}.cls-10{fill:#fe3601;}.cls-11{stroke:#00a5d8;stroke-width:2px;}</style><linearGradient id="linear-gradient" x1="85.32" y1="85.62" x2="241.6" y2="85.62" gradientTransform="translate(55.34 -22.53) rotate(19.89)" gradientUnits="userSpaceOnUse"><stop offset="0" stop-color="#2bc2fd"/><stop offset="1" stop-color="#f2f2f2"/></linearGradient></defs><title>missing_data_icon</title><g class="cls-1"><g id="Layer_1" data-name="Layer 1"><path class="cls-2" d="M263.68,37.37A112.51,112.51,0,0,0,86.31,174.47l-.19.14L2.43,251.7a6,6,0,0,0-.35,8.48l15.28,16.59a6,6,0,0,0,8.48.35l83.4-76.82A112.5,112.5,0,0,0,263.68,37.37Z"/><path class="cls-3" d="M253.41,140.17a78.14,78.14,0,1,1-46.9-100.06,78.14,78.14,0,0,1,46.9,100.06"/><path class="cls-4" d="M218,114.05c0,31.34-37.83,56.74-37.83,56.74s-37.83-25.4-37.83-56.74,37.83-56.74,37.83-56.74S218,82.72,218,114.05Z"/><path class="cls-5" d="M196.42,124.49H163.86a16.89,16.89,0,0,0,6.29,9.11h20A16.89,16.89,0,0,0,196.42,124.49Z"/><path class="cls-6" d="M163.24,120h33.81a17,17,0,0,1-.63,4.51H163.86A17,17,0,0,1,163.24,120Z"/><path class="cls-6" d="M170.16,133.6h20a16.83,16.83,0,0,1-20,0Z"/><path class="cls-7" d="M217.76,113.59c0,31.34-37.83,56.74-37.83,56.74s-37.83-25.4-37.83-56.74,37.83-56.74,37.83-56.74S217.76,82.25,217.76,113.59Z"/><path class="cls-8" d="M183.31,105.88a12.64,12.64,0,1,1,25.28,0"/><path class="cls-8" d="M152.11,105.88a12.64,12.64,0,0,1,25.28,0"/><path class="cls-9" d="M210.67,81.36a6.9,6.9,0,1,1-13.8,0c0-3.81,6.9-16.52,6.9-16.52S210.67,77.55,210.67,81.36Z"/><path class="cls-10" d="M283.81,85.41q0-5.69.29-9.66a28.82,28.82,0,0,1,1.36-7.14,19.08,19.08,0,0,1,3.22-5.86,37.17,37.17,0,0,1,6-5.74q2.8-2.56,5.61-5.41a58.61,58.61,0,0,0,5.07-5.86,31.85,31.85,0,0,0,3.67-6.15,15.25,15.25,0,0,0,1.4-6.27q0-7.51-4-11t-11.8-3.47a21.37,21.37,0,0,0-5.78.78,14,14,0,0,0-5,2.52,13,13,0,0,0-3.55,4.46,15.19,15.19,0,0,0-1.44,6.52h-23A33.68,33.68,0,0,1,259,18.53a29.69,29.69,0,0,1,8.25-10.36A35,35,0,0,1,279.43,2a54.63,54.63,0,0,1,15.18-2A60.14,60.14,0,0,1,311,2.06a33.6,33.6,0,0,1,12.25,6.15,26.75,26.75,0,0,1,7.63,10.11,34.48,34.48,0,0,1,2.64,13.95,27.9,27.9,0,0,1-2,10.69,40.42,40.42,0,0,1-5.12,9,62,62,0,0,1-7.14,7.92q-4,3.76-8,7.3a40.39,40.39,0,0,0-3.88,4.37,13.12,13.12,0,0,0-2,3.88,18.94,18.94,0,0,0-.78,4.33q-.17,2.35-.17,5.65Zm-3.38,25a14,14,0,0,1,.91-5.07,11.61,11.61,0,0,1,2.64-4.08,11.87,11.87,0,0,1,4.21-2.68,16.94,16.94,0,0,1,11.18,0,11.81,11.81,0,0,1,4.25,2.68,12.13,12.13,0,0,1,2.68,4.08,13.45,13.45,0,0,1,.95,5.07,12.92,12.92,0,0,1-.95,5,11.35,11.35,0,0,1-2.68,4,12.41,12.41,0,0,1-4.25,2.6,16.94,16.94,0,0,1-11.18,0,12.48,12.48,0,0,1-4.21-2.6,10.87,10.87,0,0,1-2.64-4A13.39,13.39,0,0,1,280.42,110.41Z"/><line class="cls-11" x1="123.39" y1="95.33" x2="168.04" y2="52.68"/><line class="cls-11" x1="126.04" y1="129.68" x2="146.12" y2="109.6"/><line class="cls-11" x1="161.85" y1="93.87" x2="202.04" y2="53.68"/></g></g></svg>