<svg id="Layer_1" data-name="Layer 1" xmlns="http://www.w3.org/2000/svg" viewBox="0 0 69.26 54.24"><defs><style>.cls-1{fill:#fe5f43;}.cls-1,.cls-2,.cls-3{stroke:#000;stroke-linecap:round;stroke-linejoin:round;}.cls-2{fill:#fdd45b;}.cls-3{fill:#e28948;}</style></defs><title>school_icon</title><polygon class="cls-1" points="50 0.5 19.25 0.5 19.25 26.23 31.25 26.23 50 26.23 68.76 26.23 50 0.5"/><rect class="cls-2" x="31.25" y="26.23" width="37.51" height="27.51"/><rect class="cls-2" x="0.5" y="26.23" width="37.51" height="27.51"/><polygon class="cls-1" points="38.01 26.23 0.5 26.23 19.25 0.5 38.01 26.23"/><path class="cls-3" d="M19.25,37.35h0A6.78,6.78,0,0,1,26,44.13v9.61a0,0,0,0,1,0,0H12.48a0,0,0,0,1,0,0V44.13A6.78,6.78,0,0,1,19.25,37.35Z"/></svg>