<svg id="Layer_1" data-name="Layer 1" xmlns="http://www.w3.org/2000/svg" xmlns:xlink="http://www.w3.org/1999/xlink" viewBox="0 0 238.64 228.8"><defs><style>.cls-1,.cls-17{fill:none;}.cls-13,.cls-16,.cls-2{fill:#fff;}.cls-17,.cls-2{stroke:#000;}.cls-12,.cls-15,.cls-16,.cls-17,.cls-2{stroke-miterlimit:10;}.cls-3{fill:#fe3601;}.cls-4{fill:#fdd45b;}.cls-5{clip-path:url(#clip-path);}.cls-6{fill:url(#linear-gradient);}.cls-7{fill:url(#linear-gradient-2);}.cls-8{fill:url(#linear-gradient-3);}.cls-9{fill:url(#linear-gradient-4);}.cls-10{fill:url(#linear-gradient-5);}.cls-11{fill:url(#linear-gradient-6);}.cls-12{fill:#65d67d;}.cls-12,.cls-15,.cls-16{stroke:#1d1d1b;}.cls-14{fill:#2bc2fd;}.cls-15{fill:#fe5f43;}</style><clipPath id="clip-path"><circle class="cls-1" cx="115.73" cy="114.4" r="78.14" transform="translate(-0.4 0.4) rotate(-0.2)"/></clipPath><linearGradient id="linear-gradient" x1="81.36" y1="171.06" x2="160.45" y2="171.06" gradientTransform="translate(-0.36 0.48) rotate(-0.2)" gradientUnits="userSpaceOnUse"><stop offset="0" stop-color="#ff3800"/><stop offset="1" stop-color="#ffce00"/></linearGradient><linearGradient id="linear-gradient-2" x1="117.07" y1="229.63" x2="118.33" y2="129.15" gradientTransform="translate(-0.36 0.48) rotate(-0.2)" gradientUnits="userSpaceOnUse"><stop offset="0.27" stop-color="#ff1700"/><stop offset="0.3" stop-color="#ff2100"/><stop offset="0.46" stop-color="#ff4c00"/><stop offset="0.61" stop-color="#ff6e00"/><stop offset="0.76" stop-color="#ff8700"/><stop offset="0.89" stop-color="#ff9600"/><stop offset="1" stop-color="#ff9b00"/></linearGradient><linearGradient id="linear-gradient-3" x1="37.08" y1="137.14" x2="116.17" y2="137.14" xlink:href="#linear-gradient"/><linearGradient id="linear-gradient-4" x1="72.79" y1="195.71" x2="74.05" y2="95.23" xlink:href="#linear-gradient-2"/><linearGradient id="linear-gradient-5" x1="113.97" y1="132.63" x2="193.06" y2="132.63" xlink:href="#linear-gradient"/><linearGradient id="linear-gradient-6" x1="149.69" y1="191.2" x2="150.94" y2="90.71" xlink:href="#linear-gradient-2"/></defs><title>t_high</title><path class="cls-2" d="M114,.5A113.91,113.91,0,0,0,21.95,180.94L11.6,209.48l29.49-7.92A113.9,113.9,0,1,0,114,.5Z"/><path class="cls-3" d="M211.9,112.23a13.65,13.65,0,0,1,.89-5,11.7,11.7,0,0,1,2.63-4.05,11.88,11.88,0,0,1,4.2-2.7,15.6,15.6,0,0,1,5.61-1,15.36,15.36,0,0,1,5.53.93,11.87,11.87,0,0,1,4.22,2.67,12.24,12.24,0,0,1,2.7,4,13.14,13.14,0,0,1,1,5,12.92,12.92,0,0,1-.93,5,11.35,11.35,0,0,1-2.67,4,12.49,12.49,0,0,1-4.2,2.61,15.38,15.38,0,0,1-5.53,1,15.64,15.64,0,0,1-5.62-.93,12.48,12.48,0,0,1-4.22-2.59,10.88,10.88,0,0,1-2.66-4A13.41,13.41,0,0,1,211.9,112.23Zm23.74-30.86-20.88.07L213.18,3.3l23.52-.08Z"/><circle class="cls-4" cx="115.73" cy="114.4" r="78.14" transform="translate(-0.4 0.4) rotate(-0.2)"/><g class="cls-5"><path class="cls-6" d="M160.7,178.15s0,0,0,0c.13,25.43-17.31,39.89-40.91,40-20.28.07-30.54-10.07-36.31-24.42a29.55,29.55,0,0,1-.73-5.11c.06-10.9,5.41-17.17,12.71-24.86,3.18-3.35,8.76-7.25,9.72-17.15,1.17-12.07-7.7-19.52-8.29-22.47,14.47-.31,24.87,4.67,33.51,14.59,4.66,5.35,7.09,10.14,15.9,26.14,1.06,2,1.32,2.32,1.12,1.9.06-.38,3.23-7.28-1.16-16.22a21.66,21.66,0,0,1-2.07-4.08s0-.09,0-.14c-.16-1.88,1.28-2.1,2-1.92,8,5,13.69,15.65,14.4,31.54,0,.36.07.73.08,1.13s0,.67,0,1A.07.07,0,0,0,160.7,178.15Zm-60-41.42c1.2,2.3,3.7,11.58-1,18.47a40.19,40.19,0,0,1-7.55,8.33c-7.46,6.73-9.39,13.94-10,12.57-1.09-2.4-.92-13.81,2-18.59,2.32-3.79,4.13-5.5,7.46-9.1,4.59-5,4.17-6.89,5.55-12.79C97.75,133.37,98.66,132.76,100.74,136.72Z"/><path class="cls-7" d="M120.38,217.47c6.49-1.75,14.57-6.15,20.94-17.18a32,32,0,0,0,4-19.33c-.71-7.13-4.59-14.38-8.73-20.16-4.37-6.89-10.55-12.45-15.6-19.11-1.84-2.44-5.68-8.15-5.46-11.5-.21,4.91-3.45,10.64-6.41,14.44-5,6.48-10.24,12.07-14.33,19.22-6.58,12.06-6.37,29.07,3.14,40.42C103.51,210.87,109.39,214.56,120.38,217.47Z"/><path class="cls-8" d="M116.3,144.38s0,0,0,0c.13,25.43-17.31,39.89-40.91,40-20.28.07-30.54-10.07-36.31-24.42a29.55,29.55,0,0,1-.73-5.11c.06-10.9,5.41-17.17,12.71-24.86,3.18-3.35,8.76-7.25,9.72-17.15,1.17-12.07-7.7-19.52-8.29-22.47C67,90.09,77.36,95.07,86,105c4.66,5.35,7.09,10.14,15.9,26.14,1.06,2,1.32,2.32,1.12,1.9.06-.38,3.23-7.28-1.16-16.22a21.66,21.66,0,0,1-2.07-4.08s0-.09,0-.14c-.16-1.88,1.28-2.1,2-1.92,8,5,13.69,15.65,14.4,31.54,0,.36.07.73.08,1.13s0,.67,0,1A.07.07,0,0,0,116.3,144.38ZM56.34,103c1.2,2.3,3.7,11.58-1,18.47a40.19,40.19,0,0,1-7.55,8.33c-7.46,6.73-9.39,13.94-10,12.57-1.09-2.4-.92-13.81,2-18.59,2.32-3.79,4.13-5.5,7.46-9.1,4.59-5,4.17-6.89,5.55-12.79C53.36,99.61,54.27,99,56.34,103Z"/><path class="cls-9" d="M76,183.71c6.49-1.75,14.57-6.15,20.94-17.18a32,32,0,0,0,4-19.33c-.71-7.13-4.59-14.38-8.73-20.16-4.37-6.89-10.55-12.45-15.6-19.11-1.84-2.44-5.68-8.15-5.46-11.5-.21,4.91-3.45,10.64-6.41,14.44-5,6.48-10.24,12.07-14.33,19.22-6.58,12.06-6.37,29.07,3.14,40.42C59.11,177.1,65,180.8,76,183.71Z"/><path class="cls-10" d="M193.18,139.6s0,0,0,0c.13,25.43-17.31,39.89-40.91,40-20.28.07-30.54-10.07-36.31-24.42a29.55,29.55,0,0,1-.73-5.11c.06-10.9,5.41-17.17,12.71-24.86,3.18-3.35,8.76-7.25,9.72-17.15,1.17-12.07-7.7-19.52-8.29-22.47,14.47-.31,24.87,4.67,33.51,14.59,4.66,5.35,7.09,10.14,15.9,26.14,1.06,2,1.32,2.32,1.12,1.9.06-.38,3.23-7.28-1.16-16.22a21.66,21.66,0,0,1-2.07-4.08s0-.09,0-.14c-.16-1.88,1.28-2.1,2-1.92,8,5,13.69,15.65,14.4,31.54,0,.36.07.73.08,1.13s0,.67,0,1A.07.07,0,0,0,193.18,139.6Zm-60-41.42c1.2,2.3,3.7,11.58-1,18.47A40.19,40.19,0,0,1,124.7,125c-7.46,6.73-9.39,13.94-10,12.57-1.09-2.4-.92-13.81,2-18.59,2.32-3.79,4.13-5.5,7.46-9.1,4.59-5,4.17-6.89,5.55-12.79C130.24,94.83,131.15,94.21,133.22,98.18Z"/><path class="cls-11" d="M152.87,178.93c6.49-1.75,14.57-6.15,20.94-17.18a32,32,0,0,0,4-19.33c-.71-7.13-4.59-14.38-8.73-20.16-4.37-6.89-10.55-12.45-15.6-19.11-1.84-2.44-5.68-8.15-5.46-11.5-.21,4.91-3.45,10.64-6.41,14.44-5,6.48-10.24,12.07-14.33,19.22-6.58,12.06-6.37,29.07,3.14,40.42C136,172.32,141.88,176,152.87,178.93Z"/></g><path class="cls-12" d="M153.56,114.26c.11,31.34-37.63,56.87-37.63,56.87S78,145.86,77.9,114.53s37.63-56.87,37.63-56.87S153.45,82.93,153.56,114.26Z"/><circle class="cls-13" cx="97.41" cy="103.3" r="11.16" transform="translate(-0.36 0.34) rotate(-0.2)"/><circle class="cls-14" cx="97.41" cy="103.3" r="3.33" transform="translate(-0.36 0.34) rotate(-0.2)"/><circle class="cls-13" cx="133.97" cy="103.18" r="11.16" transform="translate(-0.36 0.47) rotate(-0.2)"/><circle class="cls-14" cx="133.97" cy="103.18" r="3.33" transform="translate(-0.36 0.47) rotate(-0.2)"/><path class="cls-15" d="M99.51,132.76l32.55-.11a16.89,16.89,0,0,0-6.33-9.09l-20,.07A16.89,16.89,0,0,0,99.51,132.76Z"/><path class="cls-16" d="M132.71,137.16l-33.81.12a17,17,0,0,1,.61-4.51l32.56-.11A17,17,0,0,1,132.71,137.16Z"/><path class="cls-16" d="M125.74,123.56l-20,.07a16.83,16.83,0,0,1,20-.07Z"/><path class="cls-13" d="M139.41,79.18a6.9,6.9,0,0,1-13.8,0c0-3.81,6.84-16.55,6.84-16.55S139.39,75.37,139.41,79.18Z"/><path class="cls-13" d="M94.24,152.65a9.31,9.31,0,1,1-18.62.06c0-5.14,9.23-22.32,9.23-22.32S94.22,147.51,94.24,152.65Z"/><circle class="cls-17" cx="115.73" cy="114.4" r="78.14" transform="translate(-0.4 0.4) rotate(-0.2)"/></svg>