<svg xmlns="http://www.w3.org/2000/svg" xmlns:xlink="http://www.w3.org/1999/xlink" viewBox="0 0 238.65 228.8"><defs><style>.cls-1{isolation:isolate;}.cls-2,.cls-7{fill:#fff;}.cls-2{stroke:#000;}.cls-2,.cls-4,.cls-5,.cls-9{stroke-miterlimit:10;}.cls-3{fill:#fe3601;}.cls-4,.cls-9{stroke:#222221;}.cls-4{fill:url(#linear-gradient);}.cls-5{fill:#65d67d;stroke:#1d1d1b;}.cls-6,.cls-8{fill:#2bc2fd;}.cls-6{opacity:0.86;mix-blend-mode:soft-light;}.cls-9{fill:none;}</style><linearGradient id="linear-gradient" x1="35.16" y1="114.4" x2="191.44" y2="114.4" gradientUnits="userSpaceOnUse"><stop offset="0" stop-color="#2bc2fd"/><stop offset="1" stop-color="#f2f2f2"/></linearGradient></defs><title>t_low</title><g class="cls-1"><g id="Layer_1" data-name="Layer 1"><path class="cls-2" d="M114.4.5A113.91,113.91,0,0,0,21.72,180.62L11.27,209.12l29.51-7.82A113.9,113.9,0,1,0,114.4.5Z"/><path class="cls-3" d="M211.91,112.57a13.63,13.63,0,0,1,.91-5,11.68,11.68,0,0,1,2.64-4,11.86,11.86,0,0,1,4.21-2.68,15.6,15.6,0,0,1,5.61-.95,15.36,15.36,0,0,1,5.53.95,11.88,11.88,0,0,1,4.21,2.68,12.24,12.24,0,0,1,2.68,4,13.14,13.14,0,0,1,.95,5,12.92,12.92,0,0,1-.95,5,11.34,11.34,0,0,1-2.68,4,12.49,12.49,0,0,1-4.21,2.6,15.38,15.38,0,0,1-5.53.95,15.63,15.63,0,0,1-5.61-.95,12.48,12.48,0,0,1-4.21-2.6,10.85,10.85,0,0,1-2.64-4A13.39,13.39,0,0,1,211.91,112.57Zm23.85-30.78H214.88L213.56,3.64h23.52Z"/><circle class="cls-4" cx="113.3" cy="114.4" r="78.14"/><path class="cls-5" d="M151.13,114.4c0,31.34-37.83,56.74-37.83,56.74s-37.83-25.4-37.83-56.74S113.3,57.66,113.3,57.66,151.13,83.06,151.13,114.4Z"/><path class="cls-6" d="M151.13,114.4c0,31.34-37.83,56.74-37.83,56.74s-37.83-25.4-37.83-56.74S113.3,57.66,113.3,57.66,151.13,83.06,151.13,114.4Z"/><circle class="cls-7" cx="95.01" cy="103.24" r="11.16"/><circle class="cls-8" cx="95.01" cy="103.24" r="3.33"/><circle class="cls-7" cx="131.58" cy="103.24" r="11.16"/><circle class="cls-8" cx="131.58" cy="103.24" r="3.33"/><polyline class="cls-9" points="137.86 135.17 129.61 127.17 121.35 135.17 113.1 127.17 104.84 135.17 96.58 127.17 88.33 135.17"/><path class="cls-7" d="M154.85,57.08l-7.39,9.73V67l11.75-1.56V70.7l-11.75-1.4v.16l7.47,9.34-4.9,2.8-4.67-10.9h-.16l-5.06,11-4.44-2.8,7.39-9.49v-.16L131.58,70.7V65.4L143,66.88v-.16l-7.32-9.5,4.75-2.72,4.82,10.82h.16l4.75-10.9Z"/><path class="cls-7" d="M88.76,146.55l-7.39,9.73v.16l11.75-1.56v5.29l-11.75-1.4v.16l7.47,9.34-4.9,2.8-4.67-10.9h-.16l-5.06,11-4.44-2.8L77,158.85v-.16l-11.52,1.48v-5.29l11.44,1.48v-.16l-7.32-9.5L74.36,144l4.82,10.82h.16l4.75-10.9Z"/></g></g></svg>