<svg id="Layer_1" data-name="Layer 1" xmlns="http://www.w3.org/2000/svg" xmlns:xlink="http://www.w3.org/1999/xlink" viewBox="0 0 238.65 228.8"><defs><style>.cls-1,.cls-12{fill:none;}.cls-2,.cls-6,.cls-9{fill:#fff;}.cls-12,.cls-2{stroke:#000;}.cls-11,.cls-12,.cls-2,.cls-5,.cls-8,.cls-9{stroke-miterlimit:10;}.cls-3{fill:#fe3601;}.cls-4{fill:#0385e8;}.cls-5{fill:#65d67d;}.cls-11,.cls-5,.cls-8,.cls-9{stroke:#1d1d1b;}.cls-11,.cls-7{fill:#2bc2fd;}.cls-8{fill:#fe5f43;}.cls-10{clip-path:url(#clip-path);}</style><clipPath id="clip-path"><circle class="cls-1" cx="114.4" cy="114.27" r="78.14"/></clipPath></defs><title>u_high</title><path class="cls-2" d="M114.4.5A113.91,113.91,0,0,0,21.72,180.62L11.27,209.12l29.51-7.82A113.9,113.9,0,1,0,114.4.5Z"/><path class="cls-3" d="M211.91,112.57a13.64,13.64,0,0,1,.91-5,11.71,11.71,0,0,1,2.64-4,11.87,11.87,0,0,1,4.21-2.68,15.6,15.6,0,0,1,5.61-.95,15.36,15.36,0,0,1,5.53.95,11.87,11.87,0,0,1,4.21,2.68,12.24,12.24,0,0,1,2.68,4,13.14,13.14,0,0,1,.95,5,12.92,12.92,0,0,1-.95,5,11.34,11.34,0,0,1-2.68,4,12.49,12.49,0,0,1-4.21,2.6,15.36,15.36,0,0,1-5.53.95,15.6,15.6,0,0,1-5.61-.95,12.49,12.49,0,0,1-4.21-2.6,10.87,10.87,0,0,1-2.64-4A13.4,13.4,0,0,1,211.91,112.57Zm23.85-30.78H214.88L213.56,3.64h23.52Z"/><circle class="cls-4" cx="114.4" cy="114.27" r="78.14"/><path class="cls-5" d="M152.23,114.27c0,31.34-37.83,56.74-37.83,56.74s-37.83-25.4-37.83-56.74S114.4,57.52,114.4,57.52,152.23,82.93,152.23,114.27Z"/><circle class="cls-6" cx="96.12" cy="103.11" r="11.16"/><circle class="cls-7" cx="96.12" cy="103.11" r="3.33"/><circle class="cls-6" cx="132.69" cy="103.11" r="11.16"/><circle class="cls-7" cx="132.69" cy="103.11" r="3.33"/><path class="cls-8" d="M98.13,132.58h32.55a16.89,16.89,0,0,0-6.29-9.11h-20A16.89,16.89,0,0,0,98.13,132.58Z"/><path class="cls-9" d="M131.31,137.09H97.49a17,17,0,0,1,.63-4.51h32.56A17,17,0,0,1,131.31,137.09Z"/><path class="cls-9" d="M124.39,123.46h-20a16.83,16.83,0,0,1,20,0Z"/><g class="cls-10"><path class="cls-11" d="M21.85,128c14.34,0,14.34,11.38,28.69,11.38S64.88,128,79.22,128s14.35,11.38,28.69,11.38S122.26,128,136.61,128,151,139.41,165.3,139.41,179.65,128,194,128s14.35,11.38,28.7,11.38l4.23,73.8L21.85,217Z"/></g><circle class="cls-12" cx="114.4" cy="114.27" r="78.14"/></svg>