<svg id="Layer_1" data-name="Layer 1" xmlns="http://www.w3.org/2000/svg" viewBox="0 0 238.65 228.8"><defs><style>.cls-1,.cls-5,.cls-8{fill:#fff;}.cls-1,.cls-3{stroke:#000;}.cls-1,.cls-3,.cls-4,.cls-7,.cls-8{stroke-miterlimit:10;}.cls-2{fill:#fe3601;}.cls-3,.cls-7{fill:#fe5f43;}.cls-4{fill:#65d67d;}.cls-4,.cls-7,.cls-8{stroke:#1d1d1b;}.cls-6{fill:#2bc2fd;}</style></defs><title>u_low</title><path class="cls-1" d="M114.4.5A113.91,113.91,0,0,0,21.72,180.62L11.27,209.12l29.51-7.82A113.9,113.9,0,1,0,114.4.5Z"/><path class="cls-2" d="M211.91,112.57a13.65,13.65,0,0,1,.91-5,11.71,11.71,0,0,1,2.64-4,11.88,11.88,0,0,1,4.21-2.68,15.6,15.6,0,0,1,5.61-.95,15.36,15.36,0,0,1,5.53.95,11.88,11.88,0,0,1,4.21,2.68,12.24,12.24,0,0,1,2.68,4,13.14,13.14,0,0,1,.95,5,12.92,12.92,0,0,1-.95,5,11.34,11.34,0,0,1-2.68,4,12.49,12.49,0,0,1-4.21,2.6,15.36,15.36,0,0,1-5.53.95,15.6,15.6,0,0,1-5.61-.95,12.49,12.49,0,0,1-4.21-2.6,10.87,10.87,0,0,1-2.64-4A13.41,13.41,0,0,1,211.91,112.57Zm23.85-30.78H214.88L213.56,3.64h23.52Z"/><circle class="cls-3" cx="114.47" cy="114.27" r="78.14"/><path class="cls-4" d="M152.3,114.27c0,31.34-37.83,56.74-37.83,56.74s-37.83-25.4-37.83-56.74,37.83-56.74,37.83-56.74S152.3,82.93,152.3,114.27Z"/><circle class="cls-5" cx="96.18" cy="103.11" r="11.16"/><circle class="cls-6" cx="96.18" cy="103.11" r="3.33"/><circle class="cls-5" cx="132.75" cy="103.11" r="11.16"/><circle class="cls-6" cx="132.75" cy="103.11" r="3.33"/><path class="cls-7" d="M98.19,132.58h32.55a16.89,16.89,0,0,0-6.29-9.11h-20A16.89,16.89,0,0,0,98.19,132.58Z"/><path class="cls-8" d="M131.37,137.09H97.56a17,17,0,0,1,.63-4.51h32.56A17,17,0,0,1,131.37,137.09Z"/><path class="cls-8" d="M124.45,123.46h-20a16.83,16.83,0,0,1,20,0Z"/><path class="cls-7" d="M109.19,132.58a5.48,5.48,0,0,0-5.48,5.48h0V152.8a7.72,7.72,0,0,0,7,7.79,7.55,7.55,0,0,0,8.05-7.54v-15a5.48,5.48,0,0,1,5.48-5.48h-15.1Z"/></svg>